<?xml version="1.0" encoding="UTF-8" standalone="no"?>
<!DOCTYPE svg PUBLIC "-//W3C//DTD SVG 1.1//EN"
 "http://www.w3.org/Graphics/SVG/1.1/DTD/svg11.dtd">
<!-- Generated by graphviz version 2.38.0 (20140413.2041)
 -->
<!-- Title: G Pages: 1 -->
<svg width="1039pt" height="404pt"
 viewBox="0.00 0.00 1038.50 404.00" xmlns="http://www.w3.org/2000/svg" xmlns:xlink="http://www.w3.org/1999/xlink">
<g id="graph0" class="graph" transform="scale(1 1) rotate(0) translate(4 400)">
<title>G</title>
<polygon fill="white" stroke="none" points="-4,4 -4,-400 1034.5,-400 1034.5,4 -4,4"/>
<!-- n1 -->
<g id="node1" class="node"><title>n1</title>
<g id="a_node1"><a xlink:href="http://datamechanics.io/data/mjclawar_rarshad/crime_knn" xlink:title="dat:crime_knn">
<ellipse fill="#fffc87" stroke="#808080" cx="306.5" cy="-91" rx="61.99" ry="18"/>
<text text-anchor="middle" x="306.5" y="-87.3" font-family="Times New Roman,serif" font-size="14.00">dat:crime_knn</text>
</a>
</g>
</g>
<!-- n5 -->
<g id="node7" class="node"><title>n5</title>
<g id="a_node7"><a xlink:href="http://datamechanics.io/algorithm/mjclawar_rarshad/crime_knn" xlink:title="alg:crime_knn">
<polygon fill="#fed37f" stroke="black" points="263.034,-383.562 187.5,-396 111.966,-383.562 112.036,-363.438 262.964,-363.438 263.034,-383.562"/>
<text text-anchor="middle" x="187.5" y="-374.3" font-family="Times New Roman,serif" font-size="14.00">alg:crime_knn</text>
</a>
</g>
</g>
<!-- n1&#45;&gt;n5 -->
<g id="edge12" class="edge"><title>n1&#45;&gt;n5</title>
<path fill="none" stroke="#fed37f" d="M254.997,-100.986C222.836,-109.893 187.5,-127.246 187.5,-160.5 187.5,-160.5 187.5,-160.5 187.5,-306 187.5,-321.757 187.5,-339.48 187.5,-353.278"/>
<polygon fill="#fed37f" stroke="#fed37f" points="184,-353.389 187.5,-363.389 191,-353.389 184,-353.389"/>
<text text-anchor="middle" x="222.5" y="-219.5" font-family="Times New Roman,serif" font-size="10.00">wasAttributedTo</text>
</g>
<!-- n8 -->
<g id="node12" class="node"><title>n8</title>
<g id="a_node12"><a xlink:href="http://datamechanics.io/log#ae0fb67b8-dd78-42c8-98ba-3f0028ea0aca" xlink:title="log:ae0fb67b8&#45;dd78&#45;42c8&#45;98ba&#45;3f0028ea0aca">
<polygon fill="#9fb1fc" stroke="#0000ff" points="585.5,-240 313.5,-240 313.5,-204 585.5,-204 585.5,-240"/>
<text text-anchor="middle" x="449.5" y="-218.3" font-family="Times New Roman,serif" font-size="14.00">log:ae0fb67b8&#45;dd78&#45;42c8&#45;98ba&#45;3f0028ea0aca</text>
</a>
</g>
</g>
<!-- n1&#45;&gt;n8 -->
<g id="edge9" class="edge"><title>n1&#45;&gt;n8</title>
<path fill="none" stroke="darkgreen" d="M342.902,-105.654C354.962,-111.192 367.979,-118.349 378.5,-127 401.788,-146.149 421.799,-174.416 434.585,-194.949"/>
<polygon fill="darkgreen" stroke="darkgreen" points="431.761,-197.041 439.937,-203.779 437.747,-193.413 431.761,-197.041"/>
<text text-anchor="middle" x="449.5" y="-159" font-family="Times New Roman,serif" font-size="10.00" fill="darkgreen">wasGeneratedBy</text>
</g>
<!-- b4 -->
<g id="node16" class="node"><title>b4</title>
<ellipse fill="gray" stroke="gray" cx="306.5" cy="-161.5" rx="1.8" ry="1.8"/>
</g>
<!-- n1&#45;&gt;b4 -->
<g id="edge16" class="edge"><title>n1&#45;&gt;b4</title>
<path fill="none" stroke="black" d="M306.5,-109.285C306.5,-127.041 306.5,-152.936 306.5,-159.132"/>
<text text-anchor="middle" x="340.5" y="-130" font-family="Times New Roman,serif" font-size="10.00">wasDerivedFrom</text>
</g>
<!-- ann1 -->
<g id="node2" class="node"><title>ann1</title>
<polygon fill="none" stroke="gray" points="355.5,-36 251.5,-36 251.5,-0 361.5,-0 361.5,-30 355.5,-36"/>
<polyline fill="none" stroke="gray" points="355.5,-36 355.5,-30 "/>
<polyline fill="none" stroke="gray" points="361.5,-30 355.5,-30 "/>
<g id="a_node2_0"><a xlink:href="http://www.w3.org/ns/prov#label" xlink:title="&lt;TABLE&gt;">
<text text-anchor="start" x="261.5" y="-22" font-family="Times New Roman,serif" font-size="10.00">prov:label</text>
</a>
</g>
<text text-anchor="start" x="303.5" y="-22" font-family="Times New Roman,serif" font-size="10.00">Crime KNN</text>
<g id="a_node2_1"><a xlink:href="http://www.w3.org/ns/prov#type" xlink:title="&lt;TABLE&gt;">
<text text-anchor="start" x="261.5" y="-9" font-family="Times New Roman,serif" font-size="10.00">prov:type</text>
</a>
</g>
<text text-anchor="start" x="303.5" y="-9" font-family="Times New Roman,serif" font-size="10.00">ont:DataSet</text>
</g>
<!-- ann1&#45;&gt;n1 -->
<g id="edge1" class="edge"><title>ann1&#45;&gt;n1</title>
<path fill="none" stroke="gray" stroke-dasharray="5,2" d="M306.5,-36.1871C306.5,-47.3501 306.5,-61.8398 306.5,-72.9712"/>
</g>
<!-- n2 -->
<g id="node3" class="node"><title>n2</title>
<g id="a_node3"><a xlink:href="http://datamechanics.io/data/mjclawar_rarshad/home_value_model" xlink:title="dat:home_value_model">
<ellipse fill="#fffc87" stroke="#808080" cx="755.5" cy="-91" rx="94.7833" ry="18"/>
<text text-anchor="middle" x="755.5" y="-87.3" font-family="Times New Roman,serif" font-size="14.00">dat:home_value_model</text>
</a>
</g>
</g>
<!-- n6 -->
<g id="node9" class="node"><title>n6</title>
<g id="a_node9"><a xlink:href="http://datamechanics.io/algorithm/mjclawar_rarshad/home_value_model" xlink:title="alg:home_value_model">
<polygon fill="#fed37f" stroke="black" points="754.372,-383.562 638.5,-396 522.628,-383.562 522.736,-363.438 754.264,-363.438 754.372,-383.562"/>
<text text-anchor="middle" x="638.5" y="-374.3" font-family="Times New Roman,serif" font-size="14.00">alg:home_value_model</text>
</a>
</g>
</g>
<!-- n2&#45;&gt;n6 -->
<g id="edge11" class="edge"><title>n2&#45;&gt;n6</title>
<path fill="none" stroke="#fed37f" d="M693.574,-104.813C665.509,-114.604 638.5,-131.549 638.5,-160.5 638.5,-160.5 638.5,-160.5 638.5,-306 638.5,-321.757 638.5,-339.48 638.5,-353.278"/>
<polygon fill="#fed37f" stroke="#fed37f" points="635,-353.389 638.5,-363.389 642,-353.389 635,-353.389"/>
<text text-anchor="middle" x="673.5" y="-219.5" font-family="Times New Roman,serif" font-size="10.00">wasAttributedTo</text>
</g>
<!-- n7 -->
<g id="node11" class="node"><title>n7</title>
<g id="a_node11"><a xlink:href="http://datamechanics.io/log#a69fcde63-ae69-4abb-a474-8af9fe795a80" xlink:title="log:a69fcde63&#45;ae69&#45;4abb&#45;a474&#45;8af9fe795a80">
<polygon fill="#9fb1fc" stroke="#0000ff" points="1030.5,-240 764.5,-240 764.5,-204 1030.5,-204 1030.5,-240"/>
<text text-anchor="middle" x="897.5" y="-218.3" font-family="Times New Roman,serif" font-size="14.00">log:a69fcde63&#45;ae69&#45;4abb&#45;a474&#45;8af9fe795a80</text>
</a>
</g>
</g>
<!-- n2&#45;&gt;n7 -->
<g id="edge10" class="edge"><title>n2&#45;&gt;n7</title>
<path fill="none" stroke="darkgreen" d="M795.654,-107.358C806.628,-112.626 818.079,-119.2 827.5,-127 850.604,-146.131 870.312,-174.4 882.873,-194.939"/>
<polygon fill="darkgreen" stroke="darkgreen" points="880.007,-196.967 888.129,-203.771 886.023,-193.388 880.007,-196.967"/>
<text text-anchor="middle" x="896.5" y="-159" font-family="Times New Roman,serif" font-size="10.00" fill="darkgreen">wasGeneratedBy</text>
</g>
<!-- b3 -->
<g id="node15" class="node"><title>b3</title>
<ellipse fill="gray" stroke="gray" cx="755.5" cy="-161.5" rx="1.8" ry="1.8"/>
</g>
<!-- n2&#45;&gt;b3 -->
<g id="edge13" class="edge"><title>n2&#45;&gt;b3</title>
<path fill="none" stroke="black" d="M755.5,-109.285C755.5,-127.041 755.5,-152.936 755.5,-159.132"/>
<text text-anchor="middle" x="789.5" y="-130" font-family="Times New Roman,serif" font-size="10.00">wasDerivedFrom</text>
</g>
<!-- ann2 -->
<g id="node4" class="node"><title>ann2</title>
<polygon fill="none" stroke="gray" points="819,-36 686,-36 686,-0 825,-0 825,-30 819,-36"/>
<polyline fill="none" stroke="gray" points="819,-36 819,-30 "/>
<polyline fill="none" stroke="gray" points="825,-30 819,-30 "/>
<g id="a_node4_2"><a xlink:href="http://www.w3.org/ns/prov#label" xlink:title="&lt;TABLE&gt;">
<text text-anchor="start" x="696.5" y="-22" font-family="Times New Roman,serif" font-size="10.00">prov:label</text>
</a>
</g>
<text text-anchor="start" x="738.5" y="-22" font-family="Times New Roman,serif" font-size="10.00">Home Value Model</text>
<g id="a_node4_3"><a xlink:href="http://www.w3.org/ns/prov#type" xlink:title="&lt;TABLE&gt;">
<text text-anchor="start" x="696.5" y="-9" font-family="Times New Roman,serif" font-size="10.00">prov:type</text>
</a>
</g>
<text text-anchor="start" x="738.5" y="-9" font-family="Times New Roman,serif" font-size="10.00">ont:DataSet</text>
</g>
<!-- ann2&#45;&gt;n2 -->
<g id="edge2" class="edge"><title>ann2&#45;&gt;n2</title>
<path fill="none" stroke="gray" stroke-dasharray="5,2" d="M755.5,-36.1871C755.5,-47.3501 755.5,-61.8398 755.5,-72.9712"/>
</g>
<!-- n3 -->
<g id="node5" class="node"><title>n3</title>
<g id="a_node5"><a xlink:href="http://datamechanics.io/data/mjclawar_rarshad/property_assessment" xlink:title="dat:property_assessment">
<ellipse fill="#fffc87" stroke="#808080" cx="769.5" cy="-305" rx="100.983" ry="18"/>
<text text-anchor="middle" x="769.5" y="-301.3" font-family="Times New Roman,serif" font-size="14.00">dat:property_assessment</text>
</a>
</g>
</g>
<!-- n4 -->
<g id="node6" class="node"><title>n4</title>
<g id="a_node6"><a xlink:href="http://datamechanics.io/data/mjclawar_rarshad/crime_incidents" xlink:title="dat:crime_incidents">
<ellipse fill="#fffc87" stroke="#808080" cx="305.5" cy="-305" rx="81.4863" ry="18"/>
<text text-anchor="middle" x="305.5" y="-301.3" font-family="Times New Roman,serif" font-size="14.00">dat:crime_incidents</text>
</a>
</g>
</g>
<!-- ann3 -->
<g id="node8" class="node"><title>ann3</title>
<polygon fill="none" stroke="gray" points="153,-323 0,-323 0,-287 159,-287 159,-317 153,-323"/>
<polyline fill="none" stroke="gray" points="153,-323 153,-317 "/>
<polyline fill="none" stroke="gray" points="159,-317 153,-317 "/>
<g id="a_node8_4"><a xlink:href="http://www.w3.org/ns/prov#type" xlink:title="&lt;TABLE&gt;">
<text text-anchor="start" x="10.5" y="-309" font-family="Times New Roman,serif" font-size="10.00">prov:type</text>
</a>
</g>
<g id="a_node8_5"><a xlink:href="http://www.w3.org/ns/prov#SoftwareAgent" xlink:title="&lt;TABLE&gt;">
<text text-anchor="start" x="67.5" y="-309" font-family="Times New Roman,serif" font-size="10.00">prov:SoftwareAgent</text>
</a>
</g>
<g id="a_node8_6"><a xlink:href="http://datamechanics.io/ontology#Extension" xlink:title="&lt;TABLE&gt;">
<text text-anchor="start" x="10.5" y="-296" font-family="Times New Roman,serif" font-size="10.00">ont:Extension</text>
</a>
</g>
<text text-anchor="start" x="67.5" y="-296" font-family="Times New Roman,serif" font-size="10.00">py</text>
</g>
<!-- ann3&#45;&gt;n5 -->
<g id="edge3" class="edge"><title>ann3&#45;&gt;n5</title>
<path fill="none" stroke="gray" stroke-dasharray="5,2" d="M105.369,-323.006C124.09,-335.314 149.07,-351.736 166.546,-363.225"/>
</g>
<!-- ann4 -->
<g id="node10" class="node"><title>ann4</title>
<polygon fill="none" stroke="gray" points="604,-323 451,-323 451,-287 610,-287 610,-317 604,-323"/>
<polyline fill="none" stroke="gray" points="604,-323 604,-317 "/>
<polyline fill="none" stroke="gray" points="610,-317 604,-317 "/>
<g id="a_node10_7"><a xlink:href="http://www.w3.org/ns/prov#type" xlink:title="&lt;TABLE&gt;">
<text text-anchor="start" x="461.5" y="-309" font-family="Times New Roman,serif" font-size="10.00">prov:type</text>
</a>
</g>
<g id="a_node10_8"><a xlink:href="http://www.w3.org/ns/prov#SoftwareAgent" xlink:title="&lt;TABLE&gt;">
<text text-anchor="start" x="518.5" y="-309" font-family="Times New Roman,serif" font-size="10.00">prov:SoftwareAgent</text>
</a>
</g>
<g id="a_node10_9"><a xlink:href="http://datamechanics.io/ontology#Extension" xlink:title="&lt;TABLE&gt;">
<text text-anchor="start" x="461.5" y="-296" font-family="Times New Roman,serif" font-size="10.00">ont:Extension</text>
</a>
</g>
<text text-anchor="start" x="518.5" y="-296" font-family="Times New Roman,serif" font-size="10.00">py</text>
</g>
<!-- ann4&#45;&gt;n6 -->
<g id="edge4" class="edge"><title>ann4&#45;&gt;n6</title>
<path fill="none" stroke="gray" stroke-dasharray="5,2" d="M556.369,-323.006C575.09,-335.314 600.07,-351.736 617.546,-363.225"/>
</g>
<!-- n7&#45;&gt;n3 -->
<g id="edge20" class="edge"><title>n7&#45;&gt;n3</title>
<path fill="none" stroke="#8b0000" d="M870.354,-240.178C851.091,-252.368 825.07,-268.835 804.284,-281.988"/>
<polygon fill="#8b0000" stroke="#8b0000" points="802.31,-279.096 795.731,-287.401 806.053,-285.011 802.31,-279.096"/>
<text text-anchor="middle" x="850.5" y="-261" font-family="Times New Roman,serif" font-size="10.00" fill="red">used</text>
</g>
<!-- b1 -->
<g id="node13" class="node"><title>b1</title>
<ellipse fill="gray" stroke="gray" cx="891.5" cy="-305" rx="1.8" ry="1.8"/>
</g>
<!-- n7&#45;&gt;b1 -->
<g id="edge5" class="edge"><title>n7&#45;&gt;b1</title>
<path fill="none" stroke="#fed37f" d="M896.228,-240.178C894.631,-261.726 892.046,-296.635 891.575,-302.991"/>
<text text-anchor="middle" x="935.5" y="-261" font-family="Times New Roman,serif" font-size="10.00">wasAssociatedWith</text>
</g>
<!-- n8&#45;&gt;n4 -->
<g id="edge19" class="edge"><title>n8&#45;&gt;n4</title>
<path fill="none" stroke="#8b0000" d="M418.961,-240.178C396.707,-252.696 366.435,-269.724 342.757,-283.043"/>
<polygon fill="#8b0000" stroke="#8b0000" points="341.036,-279.995 334.036,-287.949 344.468,-286.096 341.036,-279.995"/>
<text text-anchor="middle" x="396.5" y="-261" font-family="Times New Roman,serif" font-size="10.00" fill="red">used</text>
</g>
<!-- b2 -->
<g id="node14" class="node"><title>b2</title>
<ellipse fill="gray" stroke="gray" cx="423.5" cy="-305" rx="1.8" ry="1.8"/>
</g>
<!-- n8&#45;&gt;b2 -->
<g id="edge7" class="edge"><title>n8&#45;&gt;b2</title>
<path fill="none" stroke="#fed37f" d="M443.986,-240.178C437.07,-261.726 425.864,-296.635 423.824,-302.991"/>
<text text-anchor="middle" x="479.5" y="-261" font-family="Times New Roman,serif" font-size="10.00">wasAssociatedWith</text>
</g>
<!-- b1&#45;&gt;n6 -->
<g id="edge6" class="edge"><title>b1&#45;&gt;n6</title>
<path fill="none" stroke="#fed37f" d="M891.188,-306.798C890.072,-309.544 885.991,-318.67 879.5,-323 845.63,-345.593 803.73,-358.855 764.417,-366.6"/>
<polygon fill="#fed37f" stroke="#fed37f" points="763.673,-363.179 754.484,-368.453 764.956,-370.06 763.673,-363.179"/>
</g>
<!-- b2&#45;&gt;n5 -->
<g id="edge8" class="edge"><title>b2&#45;&gt;n5</title>
<path fill="none" stroke="#fed37f" d="M422.492,-306.765C418.969,-309.403 406.815,-318.218 395.5,-323 355.909,-339.731 309.828,-352.339 271.116,-361.147"/>
<polygon fill="#fed37f" stroke="#fed37f" points="269.924,-357.827 260.924,-363.418 271.446,-364.659 269.924,-357.827"/>
</g>
<!-- b3&#45;&gt;n3 -->
<g id="edge14" class="edge"><title>b3&#45;&gt;n3</title>
<path fill="none" stroke="black" d="M755.412,-163.597C754.871,-170.531 752.145,-208.966 755.5,-240 756.829,-252.294 759.554,-265.689 762.25,-277.032"/>
<polygon fill="black" stroke="black" points="758.865,-277.923 764.676,-286.782 765.658,-276.232 758.865,-277.923"/>
</g>
<!-- b3&#45;&gt;n7 -->
<g id="edge15" class="edge"><title>b3&#45;&gt;n7</title>
<path fill="none" stroke="gray" d="M757.095,-163.157C765.961,-166.81 810.103,-184.995 846.559,-200.014"/>
<polygon fill="gray" stroke="gray" points="845.538,-203.379 856.118,-203.952 848.205,-196.906 845.538,-203.379"/>
</g>
<!-- b4&#45;&gt;n4 -->
<g id="edge17" class="edge"><title>b4&#45;&gt;n4</title>
<path fill="none" stroke="black" d="M306.432,-163.526C306.129,-168.188 304.889,-187.847 304.5,-204 303.908,-228.57 304.277,-256.544 304.724,-276.645"/>
<polygon fill="black" stroke="black" points="301.226,-276.743 304.968,-286.655 308.224,-276.572 301.226,-276.743"/>
</g>
<!-- b4&#45;&gt;n8 -->
<g id="edge18" class="edge"><title>b4&#45;&gt;n8</title>
<path fill="none" stroke="gray" d="M307.736,-163.006C315.739,-166.28 361.053,-184.817 398.328,-200.066"/>
<polygon fill="gray" stroke="gray" points="397.023,-203.314 407.604,-203.861 399.673,-196.835 397.023,-203.314"/>
</g>
</g>
</svg>
