<?xml version="1.0" encoding="UTF-8" standalone="no"?>
<!DOCTYPE svg PUBLIC "-//W3C//DTD SVG 1.1//EN"
 "http://www.w3.org/Graphics/SVG/1.1/DTD/svg11.dtd">
<!-- Generated by graphviz version 2.38.0 (20140413.2041)
 -->
<!-- Title: G Pages: 1 -->
<svg width="2205pt" height="643pt"
 viewBox="0.00 0.00 2205.00 643.00" xmlns="http://www.w3.org/2000/svg" xmlns:xlink="http://www.w3.org/1999/xlink">
<g id="graph0" class="graph" transform="scale(1 1) rotate(0) translate(4 639)">
<title>G</title>
<polygon fill="white" stroke="none" points="-4,4 -4,-639 2201,-639 2201,4 -4,4"/>
<!-- n1 -->
<g id="node1" class="node"><title>n1</title>
<g id="a_node1"><a xlink:href="http://datamechanics.io/log#ac8ac80a9-d05e-42e4-ab80-60e7d6b3f585" xlink:title="log:ac8ac80a9&#45;d05e&#45;42e4&#45;ab80&#45;60e7d6b3f585">
<polygon fill="#9fb1fc" stroke="#0000ff" points="643.5,-240 370.5,-240 370.5,-204 643.5,-204 643.5,-240"/>
<text text-anchor="middle" x="507" y="-218.3" font-family="Times New Roman,serif" font-size="14.00">log:ac8ac80a9&#45;d05e&#45;42e4&#45;ab80&#45;60e7d6b3f585</text>
</a>
</g>
</g>
<!-- n19 -->
<g id="node27" class="node"><title>n19</title>
<g id="a_node27"><a xlink:href="http://datamechanics.io/data/mjclawar_rarshad/property_assessment" xlink:title="dat:property_assessment">
<ellipse fill="#fffc87" stroke="#808080" cx="278" cy="-305" rx="100.983" ry="18"/>
<text text-anchor="middle" x="278" y="-301.3" font-family="Times New Roman,serif" font-size="14.00">dat:property_assessment</text>
</a>
</g>
</g>
<!-- n1&#45;&gt;n19 -->
<g id="edge13" class="edge"><title>n1&#45;&gt;n19</title>
<path fill="none" stroke="#8b0000" d="M458.715,-240.079C421.214,-253.344 369.275,-271.715 330.699,-285.36"/>
<polygon fill="#8b0000" stroke="#8b0000" points="329.457,-282.087 321.196,-288.721 331.791,-288.686 329.457,-282.087"/>
<text text-anchor="middle" x="417" y="-261" font-family="Times New Roman,serif" font-size="10.00" fill="red">used</text>
</g>
<!-- n21 -->
<g id="node31" class="node"><title>n21</title>
<g id="a_node31"><a xlink:href="http://datamechanics.io/data/mjclawar_rarshad/hospital_locations" xlink:title="dat:hospital_locations">
<ellipse fill="#fffc87" stroke="#808080" cx="843" cy="-305" rx="89.8845" ry="18"/>
<text text-anchor="middle" x="843" y="-301.3" font-family="Times New Roman,serif" font-size="14.00">dat:hospital_locations</text>
</a>
</g>
</g>
<!-- n1&#45;&gt;n21 -->
<g id="edge14" class="edge"><title>n1&#45;&gt;n21</title>
<path fill="none" stroke="#8b0000" d="M549.803,-240.087C575.126,-249.675 608.015,-261.235 638,-269 677.456,-279.218 721.977,-287.23 759.424,-292.995"/>
<polygon fill="#8b0000" stroke="#8b0000" points="759.377,-296.527 769.788,-294.561 760.423,-289.606 759.377,-296.527"/>
<text text-anchor="middle" x="648" y="-261" font-family="Times New Roman,serif" font-size="10.00" fill="red">used</text>
</g>
<!-- b3 -->
<g id="node37" class="node"><title>b3</title>
<ellipse fill="gray" stroke="gray" cx="507" cy="-305" rx="1.8" ry="1.8"/>
</g>
<!-- n1&#45;&gt;b3 -->
<g id="edge30" class="edge"><title>n1&#45;&gt;b3</title>
<path fill="none" stroke="#fed37f" d="M507,-240.178C507,-261.726 507,-296.635 507,-302.991"/>
<text text-anchor="middle" x="548" y="-261" font-family="Times New Roman,serif" font-size="10.00">wasAssociatedWith</text>
</g>
<!-- n2 -->
<g id="node2" class="node"><title>n2</title>
<g id="a_node2"><a xlink:href="http://datamechanics.io/log#a1abbe973-fae2-44bf-952d-105c6f369d06" xlink:title="log:a1abbe973&#45;fae2&#45;44bf&#45;952d&#45;105c6f369d06">
<polygon fill="#9fb1fc" stroke="#0000ff" points="1588.5,-240 1317.5,-240 1317.5,-204 1588.5,-204 1588.5,-240"/>
<text text-anchor="middle" x="1453" y="-218.3" font-family="Times New Roman,serif" font-size="14.00">log:a1abbe973&#45;fae2&#45;44bf&#45;952d&#45;105c6f369d06</text>
</a>
</g>
</g>
<!-- n14 -->
<g id="node21" class="node"><title>n14</title>
<g id="a_node21"><a xlink:href="https://data.cityofboston.gov/resource/e29s-ympv" xlink:title="bdp:e29s&#45;ympv">
<ellipse fill="#fffc87" stroke="#808080" cx="1318" cy="-305" rx="67.6881" ry="18"/>
<text text-anchor="middle" x="1318" y="-301.3" font-family="Times New Roman,serif" font-size="14.00">bdp:e29s&#45;ympv</text>
</a>
</g>
</g>
<!-- n2&#45;&gt;n14 -->
<g id="edge18" class="edge"><title>n2&#45;&gt;n14</title>
<path fill="none" stroke="#8b0000" d="M1424.37,-240.178C1403.55,-252.668 1375.26,-269.646 1353.08,-282.951"/>
<polygon fill="#8b0000" stroke="#8b0000" points="1351.07,-280.074 1344.3,-288.22 1354.68,-286.076 1351.07,-280.074"/>
<text text-anchor="middle" x="1404" y="-261" font-family="Times New Roman,serif" font-size="10.00" fill="red">used</text>
</g>
<!-- b1 -->
<g id="node35" class="node"><title>b1</title>
<ellipse fill="gray" stroke="gray" cx="1420" cy="-305" rx="1.8" ry="1.8"/>
</g>
<!-- n2&#45;&gt;b1 -->
<g id="edge26" class="edge"><title>n2&#45;&gt;b1</title>
<path fill="none" stroke="#fed37f" d="M1446,-240.178C1437.22,-261.726 1423,-296.635 1420.41,-302.991"/>
<text text-anchor="middle" x="1480" y="-261" font-family="Times New Roman,serif" font-size="10.00">wasAssociatedWith</text>
</g>
<!-- n3 -->
<g id="node3" class="node"><title>n3</title>
<g id="a_node3"><a xlink:href="http://datamechanics.io/log#a6d0777df-a62f-4974-a4fa-c82f3523e75b" xlink:title="log:a6d0777df&#45;a62f&#45;4974&#45;a4fa&#45;c82f3523e75b">
<polygon fill="#9fb1fc" stroke="#0000ff" points="1146.5,-479 879.5,-479 879.5,-443 1146.5,-443 1146.5,-479"/>
<text text-anchor="middle" x="1013" y="-457.3" font-family="Times New Roman,serif" font-size="14.00">log:a6d0777df&#45;a62f&#45;4974&#45;a4fa&#45;c82f3523e75b</text>
</a>
</g>
</g>
<!-- n15 -->
<g id="node22" class="node"><title>n15</title>
<g id="a_node22"><a xlink:href="https://data.cityofboston.gov/resource/46f7-2snz" xlink:title="bdp:46f7&#45;2snz">
<ellipse fill="#fffc87" stroke="#808080" cx="1013" cy="-544" rx="63.0888" ry="18"/>
<text text-anchor="middle" x="1013" y="-540.3" font-family="Times New Roman,serif" font-size="14.00">bdp:46f7&#45;2snz</text>
</a>
</g>
</g>
<!-- n3&#45;&gt;n15 -->
<g id="edge19" class="edge"><title>n3&#45;&gt;n15</title>
<path fill="none" stroke="#8b0000" d="M1013,-479.178C1013,-489.81 1013,-503.694 1013,-515.796"/>
<polygon fill="#8b0000" stroke="#8b0000" points="1009.5,-515.847 1013,-525.847 1016.5,-515.847 1009.5,-515.847"/>
<text text-anchor="middle" x="1023" y="-500" font-family="Times New Roman,serif" font-size="10.00" fill="red">used</text>
</g>
<!-- b5 -->
<g id="node39" class="node"><title>b5</title>
<ellipse fill="gray" stroke="gray" cx="1096" cy="-544" rx="1.8" ry="1.8"/>
</g>
<!-- n3&#45;&gt;b5 -->
<g id="edge34" class="edge"><title>n3&#45;&gt;b5</title>
<path fill="none" stroke="#fed37f" d="M1035.21,-479.094C1050.22,-491.256 1069.97,-508.486 1085,-526 1089.76,-531.549 1094.05,-539.303 1095.49,-542.016"/>
<text text-anchor="middle" x="1108" y="-500" font-family="Times New Roman,serif" font-size="10.00">wasAssociatedWith</text>
</g>
<!-- n4 -->
<g id="node4" class="node"><title>n4</title>
<g id="a_node4"><a xlink:href="http://datamechanics.io/log#aebf28f34-a199-464a-a7f2-f8adb2d8f510" xlink:title="log:aebf28f34&#45;a199&#45;464a&#45;a7f2&#45;f8adb2d8f510">
<polygon fill="#9fb1fc" stroke="#0000ff" points="1995.5,-240 1730.5,-240 1730.5,-204 1995.5,-204 1995.5,-240"/>
<text text-anchor="middle" x="1863" y="-218.3" font-family="Times New Roman,serif" font-size="14.00">log:aebf28f34&#45;a199&#45;464a&#45;a7f2&#45;f8adb2d8f510</text>
</a>
</g>
</g>
<!-- n16 -->
<g id="node23" class="node"><title>n16</title>
<g id="a_node23"><a xlink:href="http://datamechanics.io/data/mjclawar_rarshad/crime_incidents" xlink:title="dat:crime_incidents">
<ellipse fill="#fffc87" stroke="#808080" cx="2024" cy="-305" rx="81.4863" ry="18"/>
<text text-anchor="middle" x="2024" y="-301.3" font-family="Times New Roman,serif" font-size="14.00">dat:crime_incidents</text>
</a>
</g>
</g>
<!-- n4&#45;&gt;n16 -->
<g id="edge16" class="edge"><title>n4&#45;&gt;n16</title>
<path fill="none" stroke="#8b0000" d="M1897.14,-240.178C1922.49,-252.931 1957.14,-270.365 1983.83,-283.789"/>
<polygon fill="#8b0000" stroke="#8b0000" points="1982.4,-286.988 1992.9,-288.355 1985.54,-280.734 1982.4,-286.988"/>
<text text-anchor="middle" x="1964" y="-261" font-family="Times New Roman,serif" font-size="10.00" fill="red">used</text>
</g>
<!-- b6 -->
<g id="node40" class="node"><title>b6</title>
<ellipse fill="gray" stroke="gray" cx="1720" cy="-305" rx="1.8" ry="1.8"/>
</g>
<!-- n4&#45;&gt;b6 -->
<g id="edge36" class="edge"><title>n4&#45;&gt;b6</title>
<path fill="none" stroke="#fed37f" d="M1832.67,-240.178C1793.65,-262.283 1729.8,-298.449 1721.01,-303.426"/>
<text text-anchor="middle" x="1842" y="-261" font-family="Times New Roman,serif" font-size="10.00">wasAssociatedWith</text>
</g>
<!-- n5 -->
<g id="node5" class="node"><title>n5</title>
<g id="a_node5"><a xlink:href="http://datamechanics.io/log#a23b8d2c7-834a-4ade-999c-3c5a56274163" xlink:title="log:a23b8d2c7&#45;834a&#45;4ade&#45;999c&#45;3c5a56274163">
<polygon fill="#9fb1fc" stroke="#0000ff" points="276,-479 0,-479 0,-443 276,-443 276,-479"/>
<text text-anchor="middle" x="138" y="-457.3" font-family="Times New Roman,serif" font-size="14.00">log:a23b8d2c7&#45;834a&#45;4ade&#45;999c&#45;3c5a56274163</text>
</a>
</g>
</g>
<!-- n18 -->
<g id="node26" class="node"><title>n18</title>
<g id="a_node26"><a xlink:href="https://data.cityofboston.gov/resource/yv8c-t43q" xlink:title="bdp:yv8c&#45;t43q">
<ellipse fill="#fffc87" stroke="#808080" cx="287" cy="-544" rx="63.8893" ry="18"/>
<text text-anchor="middle" x="287" y="-540.3" font-family="Times New Roman,serif" font-size="14.00">bdp:yv8c&#45;t43q</text>
</a>
</g>
</g>
<!-- n5&#45;&gt;n18 -->
<g id="edge17" class="edge"><title>n5&#45;&gt;n18</title>
<path fill="none" stroke="#8b0000" d="M169.599,-479.178C193.081,-491.943 225.189,-509.398 249.892,-522.827"/>
<polygon fill="#8b0000" stroke="#8b0000" points="248.506,-526.057 258.963,-527.759 251.849,-519.907 248.506,-526.057"/>
<text text-anchor="middle" x="232" y="-500" font-family="Times New Roman,serif" font-size="10.00" fill="red">used</text>
</g>
<!-- b4 -->
<g id="node38" class="node"><title>b4</title>
<ellipse fill="gray" stroke="gray" cx="27" cy="-544" rx="1.8" ry="1.8"/>
</g>
<!-- n5&#45;&gt;b4 -->
<g id="edge32" class="edge"><title>n5&#45;&gt;b4</title>
<path fill="none" stroke="#fed37f" d="M102.32,-479.155C81.516,-490.404 55.764,-506.605 37,-526 32.0478,-531.119 28.5414,-539.142 27.4006,-541.971"/>
<text text-anchor="middle" x="114" y="-500" font-family="Times New Roman,serif" font-size="10.00">wasAssociatedWith</text>
</g>
<!-- n6 -->
<g id="node6" class="node"><title>n6</title>
<g id="a_node6"><a xlink:href="http://datamechanics.io/log#a7d153a1a-4a9f-4788-a558-17e44ddb0966" xlink:title="log:a7d153a1a&#45;4a9f&#45;4788&#45;a558&#45;17e44ddb0966">
<polygon fill="#9fb1fc" stroke="#0000ff" points="2036,-479 1762,-479 1762,-443 2036,-443 2036,-479"/>
<text text-anchor="middle" x="1899" y="-457.3" font-family="Times New Roman,serif" font-size="14.00">log:a7d153a1a&#45;4a9f&#45;4788&#45;a558&#45;17e44ddb0966</text>
</a>
</g>
</g>
<!-- n17 -->
<g id="node25" class="node"><title>n17</title>
<g id="a_node25"><a xlink:href="https://data.cityofboston.gov/resource/7cdf-6fgx" xlink:title="bdp:7cdf&#45;6fgx">
<ellipse fill="#fffc87" stroke="#808080" cx="2036" cy="-544" rx="63.0888" ry="18"/>
<text text-anchor="middle" x="2036" y="-540.3" font-family="Times New Roman,serif" font-size="14.00">bdp:7cdf&#45;6fgx</text>
</a>
</g>
</g>
<!-- n6&#45;&gt;n17 -->
<g id="edge15" class="edge"><title>n6&#45;&gt;n17</title>
<path fill="none" stroke="#8b0000" d="M1928.05,-479.178C1949.41,-491.805 1978.53,-509.02 2001.14,-522.389"/>
<polygon fill="#8b0000" stroke="#8b0000" points="1999.38,-525.414 2009.77,-527.49 2002.94,-519.388 1999.38,-525.414"/>
<text text-anchor="middle" x="1986" y="-500" font-family="Times New Roman,serif" font-size="10.00" fill="red">used</text>
</g>
<!-- b2 -->
<g id="node36" class="node"><title>b2</title>
<ellipse fill="gray" stroke="gray" cx="1776" cy="-544" rx="1.8" ry="1.8"/>
</g>
<!-- n6&#45;&gt;b2 -->
<g id="edge28" class="edge"><title>n6&#45;&gt;b2</title>
<path fill="none" stroke="#fed37f" d="M1857.39,-479.079C1834.38,-490.012 1806.41,-505.92 1786,-526 1780.92,-530.995 1777.49,-539.096 1776.39,-541.958"/>
<text text-anchor="middle" x="1864" y="-500" font-family="Times New Roman,serif" font-size="10.00">wasAssociatedWith</text>
</g>
<!-- n7 -->
<g id="node7" class="node"><title>n7</title>
<g id="a_node7"><a xlink:href="http://datamechanics.io/algorithm/mjclawar_rarshad/crime_incidents" xlink:title="alg:crime_incidents">
<polygon fill="#fed37f" stroke="black" points="1973.63,-622.562 1875,-635 1776.37,-622.562 1776.46,-602.438 1973.54,-602.438 1973.63,-622.562"/>
<text text-anchor="middle" x="1875" y="-613.3" font-family="Times New Roman,serif" font-size="14.00">alg:crime_incidents</text>
</a>
</g>
</g>
<!-- ann1 -->
<g id="node8" class="node"><title>ann1</title>
<polygon fill="none" stroke="gray" points="1948.5,-562 1795.5,-562 1795.5,-526 1954.5,-526 1954.5,-556 1948.5,-562"/>
<polyline fill="none" stroke="gray" points="1948.5,-562 1948.5,-556 "/>
<polyline fill="none" stroke="gray" points="1954.5,-556 1948.5,-556 "/>
<g id="a_node8_0"><a xlink:href="http://www.w3.org/ns/prov#type" xlink:title="&lt;TABLE&gt;">
<text text-anchor="start" x="1806" y="-548" font-family="Times New Roman,serif" font-size="10.00">prov:type</text>
</a>
</g>
<g id="a_node8_1"><a xlink:href="http://www.w3.org/ns/prov#SoftwareAgent" xlink:title="&lt;TABLE&gt;">
<text text-anchor="start" x="1863" y="-548" font-family="Times New Roman,serif" font-size="10.00">prov:SoftwareAgent</text>
</a>
</g>
<g id="a_node8_2"><a xlink:href="http://datamechanics.io/ontology#Extension" xlink:title="&lt;TABLE&gt;">
<text text-anchor="start" x="1806" y="-535" font-family="Times New Roman,serif" font-size="10.00">ont:Extension</text>
</a>
</g>
<text text-anchor="start" x="1863" y="-535" font-family="Times New Roman,serif" font-size="10.00">py</text>
</g>
<!-- ann1&#45;&gt;n7 -->
<g id="edge1" class="edge"><title>ann1&#45;&gt;n7</title>
<path fill="none" stroke="gray" stroke-dasharray="5,2" d="M1875,-562.187C1875,-574.499 1875,-590.858 1875,-602.295"/>
</g>
<!-- n8 -->
<g id="node9" class="node"><title>n8</title>
<g id="a_node9"><a xlink:href="http://datamechanics.io/algorithm/mjclawar_rarshad/crime_centroids" xlink:title="alg:crime_centroids">
<polygon fill="#fed37f" stroke="black" points="1742.34,-393.562 1642,-406 1541.66,-393.562 1541.75,-373.438 1742.25,-373.438 1742.34,-393.562"/>
<text text-anchor="middle" x="1642" y="-384.3" font-family="Times New Roman,serif" font-size="14.00">alg:crime_centroids</text>
</a>
</g>
</g>
<!-- ann2 -->
<g id="node10" class="node"><title>ann2</title>
<polygon fill="none" stroke="gray" points="1607.5,-323 1454.5,-323 1454.5,-287 1613.5,-287 1613.5,-317 1607.5,-323"/>
<polyline fill="none" stroke="gray" points="1607.5,-323 1607.5,-317 "/>
<polyline fill="none" stroke="gray" points="1613.5,-317 1607.5,-317 "/>
<g id="a_node10_3"><a xlink:href="http://www.w3.org/ns/prov#type" xlink:title="&lt;TABLE&gt;">
<text text-anchor="start" x="1465" y="-309" font-family="Times New Roman,serif" font-size="10.00">prov:type</text>
</a>
</g>
<g id="a_node10_4"><a xlink:href="http://www.w3.org/ns/prov#SoftwareAgent" xlink:title="&lt;TABLE&gt;">
<text text-anchor="start" x="1522" y="-309" font-family="Times New Roman,serif" font-size="10.00">prov:SoftwareAgent</text>
</a>
</g>
<g id="a_node10_5"><a xlink:href="http://datamechanics.io/ontology#Extension" xlink:title="&lt;TABLE&gt;">
<text text-anchor="start" x="1465" y="-296" font-family="Times New Roman,serif" font-size="10.00">ont:Extension</text>
</a>
</g>
<text text-anchor="start" x="1522" y="-296" font-family="Times New Roman,serif" font-size="10.00">py</text>
</g>
<!-- ann2&#45;&gt;n8 -->
<g id="edge2" class="edge"><title>ann2&#45;&gt;n8</title>
<path fill="none" stroke="gray" stroke-dasharray="5,2" d="M1556.9,-323.178C1576.84,-338.131 1605.36,-359.519 1623.78,-373.334"/>
</g>
<!-- n9 -->
<g id="node11" class="node"><title>n9</title>
<g id="a_node11"><a xlink:href="http://datamechanics.io/algorithm/mjclawar_rarshad/boston_public_schools" xlink:title="alg:boston_public_schools">
<polygon fill="#fed37f" stroke="black" points="1325.33,-393.562 1191,-406 1056.67,-393.562 1056.8,-373.438 1325.2,-373.438 1325.33,-393.562"/>
<text text-anchor="middle" x="1191" y="-384.3" font-family="Times New Roman,serif" font-size="14.00">alg:boston_public_schools</text>
</a>
</g>
</g>
<!-- ann3 -->
<g id="node12" class="node"><title>ann3</title>
<polygon fill="none" stroke="gray" points="1156.5,-323 1003.5,-323 1003.5,-287 1162.5,-287 1162.5,-317 1156.5,-323"/>
<polyline fill="none" stroke="gray" points="1156.5,-323 1156.5,-317 "/>
<polyline fill="none" stroke="gray" points="1162.5,-317 1156.5,-317 "/>
<g id="a_node12_6"><a xlink:href="http://www.w3.org/ns/prov#type" xlink:title="&lt;TABLE&gt;">
<text text-anchor="start" x="1014" y="-309" font-family="Times New Roman,serif" font-size="10.00">prov:type</text>
</a>
</g>
<g id="a_node12_7"><a xlink:href="http://www.w3.org/ns/prov#SoftwareAgent" xlink:title="&lt;TABLE&gt;">
<text text-anchor="start" x="1071" y="-309" font-family="Times New Roman,serif" font-size="10.00">prov:SoftwareAgent</text>
</a>
</g>
<g id="a_node12_8"><a xlink:href="http://datamechanics.io/ontology#Extension" xlink:title="&lt;TABLE&gt;">
<text text-anchor="start" x="1014" y="-296" font-family="Times New Roman,serif" font-size="10.00">ont:Extension</text>
</a>
</g>
<text text-anchor="start" x="1071" y="-296" font-family="Times New Roman,serif" font-size="10.00">py</text>
</g>
<!-- ann3&#45;&gt;n9 -->
<g id="edge3" class="edge"><title>ann3&#45;&gt;n9</title>
<path fill="none" stroke="gray" stroke-dasharray="5,2" d="M1105.9,-323.178C1125.84,-338.131 1154.36,-359.519 1172.78,-373.334"/>
</g>
<!-- n10 -->
<g id="node13" class="node"><title>n10</title>
<g id="a_node13"><a xlink:href="http://datamechanics.io/algorithm/mjclawar_rarshad/hospital_locations" xlink:title="alg:hospital_locations">
<polygon fill="#fed37f" stroke="black" points="962.124,-622.562 852,-635 741.876,-622.562 741.979,-602.438 962.021,-602.438 962.124,-622.562"/>
<text text-anchor="middle" x="852" y="-613.3" font-family="Times New Roman,serif" font-size="14.00">alg:hospital_locations</text>
</a>
</g>
</g>
<!-- ann4 -->
<g id="node14" class="node"><title>ann4</title>
<polygon fill="none" stroke="gray" points="925.5,-562 772.5,-562 772.5,-526 931.5,-526 931.5,-556 925.5,-562"/>
<polyline fill="none" stroke="gray" points="925.5,-562 925.5,-556 "/>
<polyline fill="none" stroke="gray" points="931.5,-556 925.5,-556 "/>
<g id="a_node14_9"><a xlink:href="http://www.w3.org/ns/prov#type" xlink:title="&lt;TABLE&gt;">
<text text-anchor="start" x="783" y="-548" font-family="Times New Roman,serif" font-size="10.00">prov:type</text>
</a>
</g>
<g id="a_node14_10"><a xlink:href="http://www.w3.org/ns/prov#SoftwareAgent" xlink:title="&lt;TABLE&gt;">
<text text-anchor="start" x="840" y="-548" font-family="Times New Roman,serif" font-size="10.00">prov:SoftwareAgent</text>
</a>
</g>
<g id="a_node14_11"><a xlink:href="http://datamechanics.io/ontology#Extension" xlink:title="&lt;TABLE&gt;">
<text text-anchor="start" x="783" y="-535" font-family="Times New Roman,serif" font-size="10.00">ont:Extension</text>
</a>
</g>
<text text-anchor="start" x="840" y="-535" font-family="Times New Roman,serif" font-size="10.00">py</text>
</g>
<!-- ann4&#45;&gt;n10 -->
<g id="edge4" class="edge"><title>ann4&#45;&gt;n10</title>
<path fill="none" stroke="gray" stroke-dasharray="5,2" d="M852,-562.187C852,-574.499 852,-590.858 852,-602.295"/>
</g>
<!-- n11 -->
<g id="node15" class="node"><title>n11</title>
<g id="a_node15"><a xlink:href="http://datamechanics.io/algorithm/mjclawar_rarshad/hospital_distances" xlink:title="alg:hospital_distances">
<polygon fill="#fed37f" stroke="black" points="715.731,-393.562 605,-406 494.269,-393.562 494.372,-373.438 715.628,-373.438 715.731,-393.562"/>
<text text-anchor="middle" x="605" y="-384.3" font-family="Times New Roman,serif" font-size="14.00">alg:hospital_distances</text>
</a>
</g>
</g>
<!-- ann5 -->
<g id="node16" class="node"><title>ann5</title>
<polygon fill="none" stroke="gray" points="679.5,-323 526.5,-323 526.5,-287 685.5,-287 685.5,-317 679.5,-323"/>
<polyline fill="none" stroke="gray" points="679.5,-323 679.5,-317 "/>
<polyline fill="none" stroke="gray" points="685.5,-317 679.5,-317 "/>
<g id="a_node16_12"><a xlink:href="http://www.w3.org/ns/prov#type" xlink:title="&lt;TABLE&gt;">
<text text-anchor="start" x="537" y="-309" font-family="Times New Roman,serif" font-size="10.00">prov:type</text>
</a>
</g>
<g id="a_node16_13"><a xlink:href="http://www.w3.org/ns/prov#SoftwareAgent" xlink:title="&lt;TABLE&gt;">
<text text-anchor="start" x="594" y="-309" font-family="Times New Roman,serif" font-size="10.00">prov:SoftwareAgent</text>
</a>
</g>
<g id="a_node16_14"><a xlink:href="http://datamechanics.io/ontology#Extension" xlink:title="&lt;TABLE&gt;">
<text text-anchor="start" x="537" y="-296" font-family="Times New Roman,serif" font-size="10.00">ont:Extension</text>
</a>
</g>
<text text-anchor="start" x="594" y="-296" font-family="Times New Roman,serif" font-size="10.00">py</text>
</g>
<!-- ann5&#45;&gt;n11 -->
<g id="edge5" class="edge"><title>ann5&#45;&gt;n11</title>
<path fill="none" stroke="gray" stroke-dasharray="5,2" d="M605.788,-323.178C605.603,-338.131 605.339,-359.519 605.169,-373.334"/>
</g>
<!-- n12 -->
<g id="node17" class="node"><title>n12</title>
<g id="a_node17"><a xlink:href="http://datamechanics.io/algorithm/mjclawar_rarshad/property_assessment" xlink:title="alg:property_assessment">
<polygon fill="#fed37f" stroke="black" points="249.939,-622.562 126,-635 2.06076,-622.562 2.17644,-602.438 249.824,-602.438 249.939,-622.562"/>
<text text-anchor="middle" x="126" y="-613.3" font-family="Times New Roman,serif" font-size="14.00">alg:property_assessment</text>
</a>
</g>
</g>
<!-- ann6 -->
<g id="node18" class="node"><title>ann6</title>
<polygon fill="none" stroke="gray" points="199.5,-562 46.5,-562 46.5,-526 205.5,-526 205.5,-556 199.5,-562"/>
<polyline fill="none" stroke="gray" points="199.5,-562 199.5,-556 "/>
<polyline fill="none" stroke="gray" points="205.5,-556 199.5,-556 "/>
<g id="a_node18_15"><a xlink:href="http://www.w3.org/ns/prov#type" xlink:title="&lt;TABLE&gt;">
<text text-anchor="start" x="57" y="-548" font-family="Times New Roman,serif" font-size="10.00">prov:type</text>
</a>
</g>
<g id="a_node18_16"><a xlink:href="http://www.w3.org/ns/prov#SoftwareAgent" xlink:title="&lt;TABLE&gt;">
<text text-anchor="start" x="114" y="-548" font-family="Times New Roman,serif" font-size="10.00">prov:SoftwareAgent</text>
</a>
</g>
<g id="a_node18_17"><a xlink:href="http://datamechanics.io/ontology#Extension" xlink:title="&lt;TABLE&gt;">
<text text-anchor="start" x="57" y="-535" font-family="Times New Roman,serif" font-size="10.00">ont:Extension</text>
</a>
</g>
<text text-anchor="start" x="114" y="-535" font-family="Times New Roman,serif" font-size="10.00">py</text>
</g>
<!-- ann6&#45;&gt;n12 -->
<g id="edge6" class="edge"><title>ann6&#45;&gt;n12</title>
<path fill="none" stroke="gray" stroke-dasharray="5,2" d="M126,-562.187C126,-574.499 126,-590.858 126,-602.295"/>
</g>
<!-- n13 -->
<g id="node19" class="node"><title>n13</title>
<g id="a_node19"><a xlink:href="http://datamechanics.io/data/mjclawar_rarshad/boston_public_schools" xlink:title="dat:boston_public_schools">
<ellipse fill="#fffc87" stroke="#808080" cx="1309" cy="-91" rx="109.681" ry="18"/>
<text text-anchor="middle" x="1309" y="-87.3" font-family="Times New Roman,serif" font-size="14.00">dat:boston_public_schools</text>
</a>
</g>
</g>
<!-- n13&#45;&gt;n2 -->
<g id="edge23" class="edge"><title>n13&#45;&gt;n2</title>
<path fill="none" stroke="darkgreen" d="M1349.84,-107.802C1360.58,-113.009 1371.74,-119.439 1381,-127 1404.58,-146.255 1424.97,-174.688 1437.97,-195.237"/>
<polygon fill="darkgreen" stroke="darkgreen" points="1435.02,-197.113 1443.25,-203.786 1440.98,-193.438 1435.02,-197.113"/>
<text text-anchor="middle" x="1452" y="-159" font-family="Times New Roman,serif" font-size="10.00" fill="darkgreen">wasGeneratedBy</text>
</g>
<!-- n13&#45;&gt;n9 -->
<g id="edge62" class="edge"><title>n13&#45;&gt;n9</title>
<path fill="none" stroke="#fed37f" d="M1243.79,-105.638C1216.5,-115.528 1191,-132.312 1191,-160.5 1191,-160.5 1191,-160.5 1191,-306 1191,-325.195 1191,-346.949 1191,-363.076"/>
<polygon fill="#fed37f" stroke="#fed37f" points="1187.5,-363.241 1191,-373.241 1194.5,-363.241 1187.5,-363.241"/>
<text text-anchor="middle" x="1226" y="-219.5" font-family="Times New Roman,serif" font-size="10.00">wasAttributedTo</text>
</g>
<!-- b13 -->
<g id="node47" class="node"><title>b13</title>
<ellipse fill="gray" stroke="gray" cx="1309" cy="-161.5" rx="1.8" ry="1.8"/>
</g>
<!-- n13&#45;&gt;b13 -->
<g id="edge56" class="edge"><title>n13&#45;&gt;b13</title>
<path fill="none" stroke="black" d="M1309,-109.285C1309,-127.041 1309,-152.936 1309,-159.132"/>
<text text-anchor="middle" x="1343" y="-130" font-family="Times New Roman,serif" font-size="10.00">wasDerivedFrom</text>
</g>
<!-- ann7 -->
<g id="node20" class="node"><title>ann7</title>
<polygon fill="none" stroke="gray" points="1379.5,-36 1232.5,-36 1232.5,-0 1385.5,-0 1385.5,-30 1379.5,-36"/>
<polyline fill="none" stroke="gray" points="1379.5,-36 1379.5,-30 "/>
<polyline fill="none" stroke="gray" points="1385.5,-30 1379.5,-30 "/>
<g id="a_node20_18"><a xlink:href="http://www.w3.org/ns/prov#label" xlink:title="&lt;TABLE&gt;">
<text text-anchor="start" x="1243" y="-22" font-family="Times New Roman,serif" font-size="10.00">prov:label</text>
</a>
</g>
<text text-anchor="start" x="1285" y="-22" font-family="Times New Roman,serif" font-size="10.00">Boston Public Schools</text>
<g id="a_node20_19"><a xlink:href="http://www.w3.org/ns/prov#type" xlink:title="&lt;TABLE&gt;">
<text text-anchor="start" x="1243" y="-9" font-family="Times New Roman,serif" font-size="10.00">prov:type</text>
</a>
</g>
<text text-anchor="start" x="1285" y="-9" font-family="Times New Roman,serif" font-size="10.00">ont:DataSet</text>
</g>
<!-- ann7&#45;&gt;n13 -->
<g id="edge7" class="edge"><title>ann7&#45;&gt;n13</title>
<path fill="none" stroke="gray" stroke-dasharray="5,2" d="M1309,-36.1871C1309,-47.3501 1309,-61.8398 1309,-72.9712"/>
</g>
<!-- n16&#45;&gt;n6 -->
<g id="edge20" class="edge"><title>n16&#45;&gt;n6</title>
<path fill="none" stroke="darkgreen" d="M1998.9,-322.197C1982.1,-333.958 1960.34,-351.078 1945,-370 1929.45,-389.181 1917.1,-414.467 1909.12,-433.351"/>
<polygon fill="darkgreen" stroke="darkgreen" points="1905.79,-432.259 1905.26,-442.841 1912.27,-434.901 1905.79,-432.259"/>
<text text-anchor="middle" x="1979" y="-385.5" font-family="Times New Roman,serif" font-size="10.00" fill="darkgreen">wasGeneratedBy</text>
</g>
<!-- n16&#45;&gt;n7 -->
<g id="edge63" class="edge"><title>n16&#45;&gt;n7</title>
<path fill="none" stroke="#fed37f" d="M2066.49,-320.398C2094.86,-333.007 2127,-354.469 2127,-387 2127,-387 2127,-387 2127,-545 2127,-576.734 2052.03,-594.973 1983.87,-604.997"/>
<polygon fill="#fed37f" stroke="#fed37f" points="1983.28,-601.545 1973.87,-606.417 1984.27,-608.476 1983.28,-601.545"/>
<text text-anchor="middle" x="2162" y="-458.5" font-family="Times New Roman,serif" font-size="10.00">wasAttributedTo</text>
</g>
<!-- b8 -->
<g id="node42" class="node"><title>b8</title>
<ellipse fill="gray" stroke="gray" cx="2024" cy="-388" rx="1.8" ry="1.8"/>
</g>
<!-- n16&#45;&gt;b8 -->
<g id="edge41" class="edge"><title>n16&#45;&gt;b8</title>
<path fill="none" stroke="black" d="M2024,-323.178C2024,-344.726 2024,-379.635 2024,-385.991"/>
<text text-anchor="middle" x="2058" y="-344" font-family="Times New Roman,serif" font-size="10.00">wasDerivedFrom</text>
</g>
<!-- ann8 -->
<g id="node24" class="node"><title>ann8</title>
<polygon fill="none" stroke="gray" points="2181.5,-240 2052.5,-240 2052.5,-204 2187.5,-204 2187.5,-234 2181.5,-240"/>
<polyline fill="none" stroke="gray" points="2181.5,-240 2181.5,-234 "/>
<polyline fill="none" stroke="gray" points="2187.5,-234 2181.5,-234 "/>
<g id="a_node24_20"><a xlink:href="http://www.w3.org/ns/prov#label" xlink:title="&lt;TABLE&gt;">
<text text-anchor="start" x="2063" y="-226" font-family="Times New Roman,serif" font-size="10.00">prov:label</text>
</a>
</g>
<text text-anchor="start" x="2105" y="-226" font-family="Times New Roman,serif" font-size="10.00">Crimes Committed</text>
<g id="a_node24_21"><a xlink:href="http://www.w3.org/ns/prov#type" xlink:title="&lt;TABLE&gt;">
<text text-anchor="start" x="2063" y="-213" font-family="Times New Roman,serif" font-size="10.00">prov:type</text>
</a>
</g>
<text text-anchor="start" x="2105" y="-213" font-family="Times New Roman,serif" font-size="10.00">ont:DataSet</text>
</g>
<!-- ann8&#45;&gt;n16 -->
<g id="edge8" class="edge"><title>ann8&#45;&gt;n16</title>
<path fill="none" stroke="gray" stroke-dasharray="5,2" d="M2099.64,-240.178C2083.13,-254.11 2060,-273.627 2043.67,-287.401"/>
</g>
<!-- n19&#45;&gt;n5 -->
<g id="edge24" class="edge"><title>n19&#45;&gt;n5</title>
<path fill="none" stroke="darkgreen" d="M253.978,-322.56C237.458,-334.613 215.594,-351.928 199,-370 180.898,-389.715 164.134,-415.202 152.78,-434.018"/>
<polygon fill="darkgreen" stroke="darkgreen" points="149.743,-432.277 147.659,-442.665 155.766,-435.844 149.743,-432.277"/>
<text text-anchor="middle" x="233" y="-385.5" font-family="Times New Roman,serif" font-size="10.00" fill="darkgreen">wasGeneratedBy</text>
</g>
<!-- n19&#45;&gt;n12 -->
<g id="edge64" class="edge"><title>n19&#45;&gt;n12</title>
<path fill="none" stroke="#fed37f" d="M321.126,-321.301C348.578,-334.105 379,-355.42 379,-387 379,-387 379,-387 379,-545 379,-573.036 320.683,-590.517 260.045,-601.116"/>
<polygon fill="#fed37f" stroke="#fed37f" points="259.186,-597.711 249.906,-602.822 260.348,-604.614 259.186,-597.711"/>
<text text-anchor="middle" x="414" y="-458.5" font-family="Times New Roman,serif" font-size="10.00">wasAttributedTo</text>
</g>
<!-- b10 -->
<g id="node44" class="node"><title>b10</title>
<ellipse fill="gray" stroke="gray" cx="278" cy="-388" rx="1.8" ry="1.8"/>
</g>
<!-- n19&#45;&gt;b10 -->
<g id="edge47" class="edge"><title>n19&#45;&gt;b10</title>
<path fill="none" stroke="black" d="M278,-323.178C278,-344.726 278,-379.635 278,-385.991"/>
<text text-anchor="middle" x="312" y="-344" font-family="Times New Roman,serif" font-size="10.00">wasDerivedFrom</text>
</g>
<!-- ann9 -->
<g id="node28" class="node"><title>ann9</title>
<polygon fill="none" stroke="gray" points="346.5,-240 203.5,-240 203.5,-204 352.5,-204 352.5,-234 346.5,-240"/>
<polyline fill="none" stroke="gray" points="346.5,-240 346.5,-234 "/>
<polyline fill="none" stroke="gray" points="352.5,-234 346.5,-234 "/>
<g id="a_node28_22"><a xlink:href="http://www.w3.org/ns/prov#label" xlink:title="&lt;TABLE&gt;">
<text text-anchor="start" x="214" y="-226" font-family="Times New Roman,serif" font-size="10.00">prov:label</text>
</a>
</g>
<text text-anchor="start" x="256" y="-226" font-family="Times New Roman,serif" font-size="10.00">Property Assessment</text>
<g id="a_node28_23"><a xlink:href="http://www.w3.org/ns/prov#type" xlink:title="&lt;TABLE&gt;">
<text text-anchor="start" x="214" y="-213" font-family="Times New Roman,serif" font-size="10.00">prov:type</text>
</a>
</g>
<text text-anchor="start" x="256" y="-213" font-family="Times New Roman,serif" font-size="10.00">ont:DataSet</text>
</g>
<!-- ann9&#45;&gt;n19 -->
<g id="edge9" class="edge"><title>ann9&#45;&gt;n19</title>
<path fill="none" stroke="gray" stroke-dasharray="5,2" d="M278,-240.178C278,-253.924 278,-273.107 278,-286.847"/>
</g>
<!-- n20 -->
<g id="node29" class="node"><title>n20</title>
<g id="a_node29"><a xlink:href="http://datamechanics.io/data/mjclawar_rarshad/crime_centroids" xlink:title="dat:crime_centroids">
<ellipse fill="#fffc87" stroke="#808080" cx="1834" cy="-91" rx="82.5854" ry="18"/>
<text text-anchor="middle" x="1834" y="-87.3" font-family="Times New Roman,serif" font-size="14.00">dat:crime_centroids</text>
</a>
</g>
</g>
<!-- n20&#45;&gt;n4 -->
<g id="edge25" class="edge"><title>n20&#45;&gt;n4</title>
<path fill="none" stroke="darkgreen" d="M1834.91,-109.182C1835.99,-124.516 1838.29,-147.496 1843,-167 1845.19,-176.08 1848.45,-185.726 1851.7,-194.314"/>
<polygon fill="darkgreen" stroke="darkgreen" points="1848.52,-195.798 1855.45,-203.814 1855.04,-193.227 1848.52,-195.798"/>
<text text-anchor="middle" x="1877" y="-159" font-family="Times New Roman,serif" font-size="10.00" fill="darkgreen">wasGeneratedBy</text>
</g>
<!-- n20&#45;&gt;n8 -->
<g id="edge60" class="edge"><title>n20&#45;&gt;n8</title>
<path fill="none" stroke="#fed37f" d="M1769.8,-102.397C1713.98,-113.31 1642,-132.762 1642,-160.5 1642,-160.5 1642,-160.5 1642,-306 1642,-325.195 1642,-346.949 1642,-363.076"/>
<polygon fill="#fed37f" stroke="#fed37f" points="1638.5,-363.241 1642,-373.241 1645.5,-363.241 1638.5,-363.241"/>
<text text-anchor="middle" x="1677" y="-219.5" font-family="Times New Roman,serif" font-size="10.00">wasAttributedTo</text>
</g>
<!-- b11 -->
<g id="node45" class="node"><title>b11</title>
<ellipse fill="gray" stroke="gray" cx="1922" cy="-161.5" rx="1.8" ry="1.8"/>
</g>
<!-- n20&#45;&gt;b11 -->
<g id="edge50" class="edge"><title>n20&#45;&gt;b11</title>
<path fill="none" stroke="black" d="M1855.3,-108.582C1878.9,-126.954 1914.51,-154.666 1920.97,-159.701"/>
<text text-anchor="middle" x="1926" y="-130" font-family="Times New Roman,serif" font-size="10.00">wasDerivedFrom</text>
</g>
<!-- ann10 -->
<g id="node30" class="node"><title>ann10</title>
<polygon fill="none" stroke="gray" points="1891,-36 1771,-36 1771,-0 1897,-0 1897,-30 1891,-36"/>
<polyline fill="none" stroke="gray" points="1891,-36 1891,-30 "/>
<polyline fill="none" stroke="gray" points="1897,-30 1891,-30 "/>
<g id="a_node30_24"><a xlink:href="http://www.w3.org/ns/prov#label" xlink:title="&lt;TABLE&gt;">
<text text-anchor="start" x="1781" y="-22" font-family="Times New Roman,serif" font-size="10.00">prov:label</text>
</a>
</g>
<text text-anchor="start" x="1823" y="-22" font-family="Times New Roman,serif" font-size="10.00">Crime Centroids</text>
<g id="a_node30_25"><a xlink:href="http://www.w3.org/ns/prov#type" xlink:title="&lt;TABLE&gt;">
<text text-anchor="start" x="1781" y="-9" font-family="Times New Roman,serif" font-size="10.00">prov:type</text>
</a>
</g>
<text text-anchor="start" x="1823" y="-9" font-family="Times New Roman,serif" font-size="10.00">ont:DataSet</text>
</g>
<!-- ann10&#45;&gt;n20 -->
<g id="edge10" class="edge"><title>ann10&#45;&gt;n20</title>
<path fill="none" stroke="gray" stroke-dasharray="5,2" d="M1834,-36.1871C1834,-47.3501 1834,-61.8398 1834,-72.9712"/>
</g>
<!-- n21&#45;&gt;n3 -->
<g id="edge21" class="edge"><title>n21&#45;&gt;n3</title>
<path fill="none" stroke="darkgreen" d="M885.443,-320.929C897.297,-326.221 909.732,-332.915 920,-341 953.354,-367.264 981.719,-407.907 998.063,-434.235"/>
<polygon fill="darkgreen" stroke="darkgreen" points="995.147,-436.176 1003.33,-442.903 1001.13,-432.54 995.147,-436.176"/>
<text text-anchor="middle" x="1013" y="-385.5" font-family="Times New Roman,serif" font-size="10.00" fill="darkgreen">wasGeneratedBy</text>
</g>
<!-- n21&#45;&gt;n10 -->
<g id="edge61" class="edge"><title>n21&#45;&gt;n10</title>
<path fill="none" stroke="#fed37f" d="M801.589,-321.122C774.46,-333.993 744,-355.466 744,-387 744,-387 744,-387 744,-545 744,-570.767 765.73,-587.703 789.695,-598.547"/>
<polygon fill="#fed37f" stroke="#fed37f" points="788.373,-601.787 798.949,-602.41 791.069,-595.327 788.373,-601.787"/>
<text text-anchor="middle" x="779" y="-458.5" font-family="Times New Roman,serif" font-size="10.00">wasAttributedTo</text>
</g>
<!-- b12 -->
<g id="node46" class="node"><title>b12</title>
<ellipse fill="gray" stroke="gray" cx="851" cy="-388" rx="1.8" ry="1.8"/>
</g>
<!-- n21&#45;&gt;b12 -->
<g id="edge53" class="edge"><title>n21&#45;&gt;b12</title>
<path fill="none" stroke="black" d="M844.697,-323.178C846.825,-344.726 850.273,-379.635 850.9,-385.991"/>
<text text-anchor="middle" x="882" y="-344" font-family="Times New Roman,serif" font-size="10.00">wasDerivedFrom</text>
</g>
<!-- ann11 -->
<g id="node32" class="node"><title>ann11</title>
<polygon fill="none" stroke="gray" points="938,-240 806,-240 806,-204 944,-204 944,-234 938,-240"/>
<polyline fill="none" stroke="gray" points="938,-240 938,-234 "/>
<polyline fill="none" stroke="gray" points="944,-234 938,-234 "/>
<g id="a_node32_26"><a xlink:href="http://www.w3.org/ns/prov#label" xlink:title="&lt;TABLE&gt;">
<text text-anchor="start" x="816" y="-226" font-family="Times New Roman,serif" font-size="10.00">prov:label</text>
</a>
</g>
<text text-anchor="start" x="858" y="-226" font-family="Times New Roman,serif" font-size="10.00">Hospital Locations</text>
<g id="a_node32_27"><a xlink:href="http://www.w3.org/ns/prov#type" xlink:title="&lt;TABLE&gt;">
<text text-anchor="start" x="816" y="-213" font-family="Times New Roman,serif" font-size="10.00">prov:type</text>
</a>
</g>
<text text-anchor="start" x="858" y="-213" font-family="Times New Roman,serif" font-size="10.00">ont:DataSet</text>
</g>
<!-- ann11&#45;&gt;n21 -->
<g id="edge11" class="edge"><title>ann11&#45;&gt;n21</title>
<path fill="none" stroke="gray" stroke-dasharray="5,2" d="M868.214,-240.178C862.783,-253.924 855.205,-273.107 849.777,-286.847"/>
</g>
<!-- n22 -->
<g id="node33" class="node"><title>n22</title>
<g id="a_node33"><a xlink:href="http://datamechanics.io/data/mjclawar_rarshad/hospital_distances" xlink:title="dat:hospital_distances">
<ellipse fill="#fffc87" stroke="#808080" cx="584" cy="-91" rx="90.9839" ry="18"/>
<text text-anchor="middle" x="584" y="-87.3" font-family="Times New Roman,serif" font-size="14.00">dat:hospital_distances</text>
</a>
</g>
</g>
<!-- n22&#45;&gt;n1 -->
<g id="edge22" class="edge"><title>n22&#45;&gt;n1</title>
<path fill="none" stroke="darkgreen" d="M573.775,-109.13C560.658,-131.105 537.784,-169.427 522.516,-195.006"/>
<polygon fill="darkgreen" stroke="darkgreen" points="519.387,-193.418 517.267,-203.799 525.398,-197.006 519.387,-193.418"/>
<text text-anchor="middle" x="580" y="-159" font-family="Times New Roman,serif" font-size="10.00" fill="darkgreen">wasGeneratedBy</text>
</g>
<!-- n22&#45;&gt;n11 -->
<g id="edge59" class="edge"><title>n22&#45;&gt;n11</title>
<path fill="none" stroke="#fed37f" d="M655.316,-102.344C687.317,-111.434 718,-128.494 718,-160.5 718,-160.5 718,-160.5 718,-306 718,-336.686 690.133,-356.87 662.077,-369.415"/>
<polygon fill="#fed37f" stroke="#fed37f" points="660.47,-366.293 652.595,-373.381 663.171,-372.751 660.47,-366.293"/>
<text text-anchor="middle" x="753" y="-219.5" font-family="Times New Roman,serif" font-size="10.00">wasAttributedTo</text>
</g>
<!-- b7 -->
<g id="node41" class="node"><title>b7</title>
<ellipse fill="gray" stroke="gray" cx="637" cy="-161.5" rx="1.8" ry="1.8"/>
</g>
<!-- n22&#45;&gt;b7 -->
<g id="edge38" class="edge"><title>n22&#45;&gt;b7</title>
<path fill="none" stroke="black" d="M597.101,-108.933C611.325,-127.316 632.537,-154.731 636.389,-159.71"/>
<text text-anchor="middle" x="653" y="-130" font-family="Times New Roman,serif" font-size="10.00">wasDerivedFrom</text>
</g>
<!-- b9 -->
<g id="node43" class="node"><title>b9</title>
<ellipse fill="gray" stroke="gray" cx="466" cy="-161.5" rx="1.8" ry="1.8"/>
</g>
<!-- n22&#45;&gt;b9 -->
<g id="edge44" class="edge"><title>n22&#45;&gt;b9</title>
<path fill="none" stroke="black" d="M506.672,-100.52C491.303,-105.836 476.88,-114.137 467,-127 459.061,-137.336 464.25,-155.233 465.671,-159.545"/>
<text text-anchor="middle" x="501" y="-130" font-family="Times New Roman,serif" font-size="10.00">wasDerivedFrom</text>
</g>
<!-- ann12 -->
<g id="node34" class="node"><title>ann12</title>
<polygon fill="none" stroke="gray" points="647,-36 515,-36 515,-0 653,-0 653,-30 647,-36"/>
<polyline fill="none" stroke="gray" points="647,-36 647,-30 "/>
<polyline fill="none" stroke="gray" points="653,-30 647,-30 "/>
<g id="a_node34_28"><a xlink:href="http://www.w3.org/ns/prov#label" xlink:title="&lt;TABLE&gt;">
<text text-anchor="start" x="525" y="-22" font-family="Times New Roman,serif" font-size="10.00">prov:label</text>
</a>
</g>
<text text-anchor="start" x="567" y="-22" font-family="Times New Roman,serif" font-size="10.00">Hospital Locations</text>
<g id="a_node34_29"><a xlink:href="http://www.w3.org/ns/prov#type" xlink:title="&lt;TABLE&gt;">
<text text-anchor="start" x="525" y="-9" font-family="Times New Roman,serif" font-size="10.00">prov:type</text>
</a>
</g>
<text text-anchor="start" x="567" y="-9" font-family="Times New Roman,serif" font-size="10.00">ont:DataSet</text>
</g>
<!-- ann12&#45;&gt;n22 -->
<g id="edge12" class="edge"><title>ann12&#45;&gt;n22</title>
<path fill="none" stroke="gray" stroke-dasharray="5,2" d="M584,-36.1871C584,-47.3501 584,-61.8398 584,-72.9712"/>
</g>
<!-- b1&#45;&gt;n9 -->
<g id="edge27" class="edge"><title>b1&#45;&gt;n9</title>
<path fill="none" stroke="#fed37f" d="M1419.11,-306.754C1415.99,-309.355 1405.21,-318.063 1395,-323 1351.78,-343.907 1300.16,-360.025 1259.66,-370.856"/>
<polygon fill="#fed37f" stroke="#fed37f" points="1258.67,-367.499 1249.88,-373.427 1260.44,-374.269 1258.67,-367.499"/>
</g>
<!-- b2&#45;&gt;n7 -->
<g id="edge29" class="edge"><title>b2&#45;&gt;n7</title>
<path fill="none" stroke="#fed37f" d="M1776.4,-546.034C1777.52,-548.876 1781,-556.93 1786,-562 1800.24,-576.439 1819.1,-588.595 1835.79,-597.696"/>
<polygon fill="#fed37f" stroke="#fed37f" points="1834.32,-600.875 1844.8,-602.432 1837.58,-594.68 1834.32,-600.875"/>
</g>
<!-- b3&#45;&gt;n11 -->
<g id="edge31" class="edge"><title>b3&#45;&gt;n11</title>
<path fill="none" stroke="#fed37f" d="M507.418,-307.013C508.604,-309.799 512.214,-317.725 517,-323 532.89,-340.513 554.282,-356.202 571.995,-367.662"/>
<polygon fill="#fed37f" stroke="#fed37f" points="570.547,-370.887 580.874,-373.258 574.279,-364.965 570.547,-370.887"/>
</g>
<!-- b4&#45;&gt;n12 -->
<g id="edge33" class="edge"><title>b4&#45;&gt;n12</title>
<path fill="none" stroke="#fed37f" d="M27.3953,-546.034C28.5228,-548.876 31.9983,-556.93 37,-562 51.243,-576.439 70.1008,-588.595 86.7907,-597.696"/>
<polygon fill="#fed37f" stroke="#fed37f" points="85.317,-600.875 95.7967,-602.432 88.5754,-594.68 85.317,-600.875"/>
</g>
<!-- b5&#45;&gt;n10 -->
<g id="edge35" class="edge"><title>b5&#45;&gt;n10</title>
<path fill="none" stroke="#fed37f" d="M1095.73,-545.796C1094.77,-548.534 1091.21,-557.637 1085,-562 1052.24,-584.997 1011.12,-598.332 972.581,-606.021"/>
<polygon fill="#fed37f" stroke="#fed37f" points="971.499,-602.663 962.318,-607.949 972.792,-609.542 971.499,-602.663"/>
</g>
<!-- b6&#45;&gt;n8 -->
<g id="edge37" class="edge"><title>b6&#45;&gt;n8</title>
<path fill="none" stroke="#fed37f" d="M1719.12,-306.91C1713.58,-312.662 1682.98,-344.446 1662.03,-366.202"/>
<polygon fill="#fed37f" stroke="#fed37f" points="1659.49,-363.789 1655.08,-373.42 1664.54,-368.644 1659.49,-363.789"/>
</g>
<!-- b7&#45;&gt;n1 -->
<g id="edge40" class="edge"><title>b7&#45;&gt;n1</title>
<path fill="none" stroke="gray" d="M635.54,-163.157C627.457,-166.794 587.354,-184.841 554.062,-199.822"/>
<polygon fill="gray" stroke="gray" points="552.568,-196.656 544.885,-203.952 555.441,-203.04 552.568,-196.656"/>
</g>
<!-- b7&#45;&gt;n21 -->
<g id="edge39" class="edge"><title>b7&#45;&gt;n21</title>
<path fill="none" stroke="black" d="M637.449,-163.394C640.953,-170.287 664.605,-215.363 696,-240 722.264,-260.61 756.186,-275.957 784.824,-286.447"/>
<polygon fill="black" stroke="black" points="783.721,-289.77 794.315,-289.82 786.064,-283.174 783.721,-289.77"/>
</g>
<!-- b8&#45;&gt;n6 -->
<g id="edge43" class="edge"><title>b8&#45;&gt;n6</title>
<path fill="none" stroke="gray" d="M2023.03,-389.677C2019.63,-392.028 2008,-400.019 1998,-406 1979.54,-417.043 1958.7,-428.552 1940.91,-438.093"/>
<polygon fill="gray" stroke="gray" points="1939.09,-435.096 1931.92,-442.891 1942.39,-441.272 1939.09,-435.096"/>
</g>
<!-- b8&#45;&gt;n17 -->
<g id="edge42" class="edge"><title>b8&#45;&gt;n17</title>
<path fill="none" stroke="black" d="M2024.71,-390.282C2027.88,-396.12 2040.85,-420.854 2045,-443 2049.58,-467.398 2046.28,-495.596 2042.45,-515.817"/>
<polygon fill="black" stroke="black" points="2038.96,-515.377 2040.37,-525.878 2045.82,-516.79 2038.96,-515.377"/>
</g>
<!-- b9&#45;&gt;n1 -->
<g id="edge46" class="edge"><title>b9&#45;&gt;n1</title>
<path fill="none" stroke="gray" d="M466.712,-163.515C469.477,-167.461 479.825,-182.226 489.341,-195.803"/>
<polygon fill="gray" stroke="gray" points="486.477,-197.816 495.083,-203.996 492.209,-193.798 486.477,-197.816"/>
</g>
<!-- b9&#45;&gt;n19 -->
<g id="edge45" class="edge"><title>b9&#45;&gt;n19</title>
<path fill="none" stroke="black" d="M464.26,-162.47C442.917,-162.136 231.818,-159.974 194,-204 170.975,-230.804 207.116,-262.034 238.918,-282.367"/>
<polygon fill="black" stroke="black" points="237.372,-285.526 247.72,-287.8 241.049,-279.569 237.372,-285.526"/>
</g>
<!-- b10&#45;&gt;n5 -->
<g id="edge49" class="edge"><title>b10&#45;&gt;n5</title>
<path fill="none" stroke="gray" d="M276.428,-389.797C267.067,-394.544 217.83,-419.515 180.72,-438.335"/>
<polygon fill="gray" stroke="gray" points="178.914,-435.327 171.578,-442.971 182.08,-441.57 178.914,-435.327"/>
</g>
<!-- b10&#45;&gt;n18 -->
<g id="edge48" class="edge"><title>b10&#45;&gt;n18</title>
<path fill="none" stroke="black" d="M278.227,-390.33C279.247,-396.377 283.425,-421.883 285,-443 286.839,-467.66 287.251,-495.828 287.255,-515.971"/>
<polygon fill="black" stroke="black" points="283.755,-515.976 287.223,-525.987 290.755,-515.999 283.755,-515.976"/>
</g>
<!-- b11&#45;&gt;n4 -->
<g id="edge52" class="edge"><title>b11&#45;&gt;n4</title>
<path fill="none" stroke="gray" d="M1920.98,-163.515C1916.88,-167.572 1901.25,-183.07 1887.25,-196.953"/>
<polygon fill="gray" stroke="gray" points="1884.79,-194.47 1880.15,-203.996 1889.71,-199.44 1884.79,-194.47"/>
</g>
<!-- b11&#45;&gt;n16 -->
<g id="edge51" class="edge"><title>b11&#45;&gt;n16</title>
<path fill="none" stroke="black" d="M1923.44,-162.749C1932.45,-164.391 1981.6,-174.528 2004,-204 2019.85,-224.862 2024.06,-255.024 2024.79,-276.761"/>
<polygon fill="black" stroke="black" points="2021.29,-277.01 2024.9,-286.971 2028.29,-276.934 2021.29,-277.01"/>
</g>
<!-- b12&#45;&gt;n3 -->
<g id="edge55" class="edge"><title>b12&#45;&gt;n3</title>
<path fill="none" stroke="gray" d="M852.4,-389.614C862.168,-393.894 920.993,-419.676 964.638,-438.804"/>
<polygon fill="gray" stroke="gray" points="963.411,-442.088 973.975,-442.896 966.221,-435.676 963.411,-442.088"/>
</g>
<!-- b12&#45;&gt;n15 -->
<g id="edge54" class="edge"><title>b12&#45;&gt;n15</title>
<path fill="none" stroke="black" d="M850.896,-390.025C850.155,-397.931 846.331,-449.672 870,-479 890.795,-504.767 924.15,-520.501 953.417,-529.916"/>
<polygon fill="black" stroke="black" points="952.576,-533.319 963.162,-532.873 954.609,-526.62 952.576,-533.319"/>
</g>
<!-- b13&#45;&gt;n2 -->
<g id="edge58" class="edge"><title>b13&#45;&gt;n2</title>
<path fill="none" stroke="gray" d="M1310.24,-163.006C1318.3,-166.28 1363.93,-184.817 1401.47,-200.066"/>
<polygon fill="gray" stroke="gray" points="1400.23,-203.339 1410.81,-203.861 1402.86,-196.854 1400.23,-203.339"/>
</g>
<!-- b13&#45;&gt;n14 -->
<g id="edge57" class="edge"><title>b13&#45;&gt;n14</title>
<path fill="none" stroke="black" d="M1308.97,-163.527C1308.81,-168.191 1308.19,-187.858 1308,-204 1307.81,-219.999 1306.76,-224.048 1308,-240 1308.94,-252.15 1310.88,-265.482 1312.8,-276.818"/>
<polygon fill="black" stroke="black" points="1309.41,-277.737 1314.6,-286.971 1316.3,-276.513 1309.41,-277.737"/>
</g>
</g>
</svg>
