<?xml version="1.0" encoding="UTF-8" standalone="no"?>
<!DOCTYPE svg PUBLIC "-//W3C//DTD SVG 1.1//EN"
 "http://www.w3.org/Graphics/SVG/1.1/DTD/svg11.dtd">
<!-- Generated by graphviz version 2.38.0 (20140413.2041)
 -->
<!-- Title: G Pages: 1 -->
<svg width="1528pt" height="404pt"
 viewBox="0.00 0.00 1528.00 404.00" xmlns="http://www.w3.org/2000/svg" xmlns:xlink="http://www.w3.org/1999/xlink">
<g id="graph0" class="graph" transform="scale(1 1) rotate(0) translate(4 400)">
<title>G</title>
<polygon fill="white" stroke="none" points="-4,4 -4,-400 1524,-400 1524,4 -4,4"/>
<!-- n1 -->
<g id="node1" class="node"><title>n1</title>
<g id="a_node1"><a xlink:href="http://datamechanics.io/data/mjclawar_rarshad/home_value_model" xlink:title="dat:home_value_model">
<ellipse fill="#fffc87" stroke="#808080" cx="306.5" cy="-91" rx="94.7833" ry="18"/>
<text text-anchor="middle" x="306.5" y="-87.3" font-family="Times New Roman,serif" font-size="14.00">dat:home_value_model</text>
</a>
</g>
</g>
<!-- n7 -->
<g id="node10" class="node"><title>n7</title>
<g id="a_node10"><a xlink:href="http://datamechanics.io/algorithm/mjclawar_rarshad/home_value_model" xlink:title="alg:home_value_model">
<polygon fill="#fed37f" stroke="black" points="303.372,-383.562 187.5,-396 71.6283,-383.562 71.7365,-363.438 303.264,-363.438 303.372,-383.562"/>
<text text-anchor="middle" x="187.5" y="-374.3" font-family="Times New Roman,serif" font-size="14.00">alg:home_value_model</text>
</a>
</g>
</g>
<!-- n1&#45;&gt;n7 -->
<g id="edge29" class="edge"><title>n1&#45;&gt;n7</title>
<path fill="none" stroke="#fed37f" d="M243.515,-104.514C214.971,-114.221 187.5,-131.179 187.5,-160.5 187.5,-160.5 187.5,-160.5 187.5,-306 187.5,-321.757 187.5,-339.48 187.5,-353.278"/>
<polygon fill="#fed37f" stroke="#fed37f" points="184,-353.389 187.5,-363.389 191,-353.389 184,-353.389"/>
<text text-anchor="middle" x="222.5" y="-219.5" font-family="Times New Roman,serif" font-size="10.00">wasAttributedTo</text>
</g>
<!-- n11 -->
<g id="node17" class="node"><title>n11</title>
<g id="a_node17"><a xlink:href="http://datamechanics.io/log#adb9bdd41-fd91-40b7-8f06-e9dee6411fb3" xlink:title="log:adb9bdd41&#45;fd91&#45;40b7&#45;8f06&#45;e9dee6411fb3">
<polygon fill="#9fb1fc" stroke="#0000ff" points="589,-240 314,-240 314,-204 589,-204 589,-240"/>
<text text-anchor="middle" x="451.5" y="-218.3" font-family="Times New Roman,serif" font-size="14.00">log:adb9bdd41&#45;fd91&#45;40b7&#45;8f06&#45;e9dee6411fb3</text>
</a>
</g>
</g>
<!-- n1&#45;&gt;n11 -->
<g id="edge17" class="edge"><title>n1&#45;&gt;n11</title>
<path fill="none" stroke="darkgreen" d="M346.553,-107.482C357.525,-112.752 369.001,-119.295 378.5,-127 402.264,-146.275 422.962,-174.705 436.189,-195.248"/>
<polygon fill="darkgreen" stroke="darkgreen" points="433.274,-197.187 441.556,-203.794 439.202,-193.464 433.274,-197.187"/>
<text text-anchor="middle" x="450.5" y="-159" font-family="Times New Roman,serif" font-size="10.00" fill="darkgreen">wasGeneratedBy</text>
</g>
<!-- b1 -->
<g id="node19" class="node"><title>b1</title>
<ellipse fill="gray" stroke="gray" cx="306.5" cy="-161.5" rx="1.8" ry="1.8"/>
</g>
<!-- n1&#45;&gt;b1 -->
<g id="edge7" class="edge"><title>n1&#45;&gt;b1</title>
<path fill="none" stroke="black" d="M306.5,-109.285C306.5,-127.041 306.5,-152.936 306.5,-159.132"/>
<text text-anchor="middle" x="340.5" y="-130" font-family="Times New Roman,serif" font-size="10.00">wasDerivedFrom</text>
</g>
<!-- ann1 -->
<g id="node2" class="node"><title>ann1</title>
<polygon fill="none" stroke="gray" points="370,-36 237,-36 237,-0 376,-0 376,-30 370,-36"/>
<polyline fill="none" stroke="gray" points="370,-36 370,-30 "/>
<polyline fill="none" stroke="gray" points="376,-30 370,-30 "/>
<g id="a_node2_0"><a xlink:href="http://www.w3.org/ns/prov#label" xlink:title="&lt;TABLE&gt;">
<text text-anchor="start" x="247.5" y="-22" font-family="Times New Roman,serif" font-size="10.00">prov:label</text>
</a>
</g>
<text text-anchor="start" x="289.5" y="-22" font-family="Times New Roman,serif" font-size="10.00">Home Value Model</text>
<g id="a_node2_1"><a xlink:href="http://www.w3.org/ns/prov#type" xlink:title="&lt;TABLE&gt;">
<text text-anchor="start" x="247.5" y="-9" font-family="Times New Roman,serif" font-size="10.00">prov:type</text>
</a>
</g>
<text text-anchor="start" x="289.5" y="-9" font-family="Times New Roman,serif" font-size="10.00">ont:DataSet</text>
</g>
<!-- ann1&#45;&gt;n1 -->
<g id="edge1" class="edge"><title>ann1&#45;&gt;n1</title>
<path fill="none" stroke="gray" stroke-dasharray="5,2" d="M306.5,-36.1871C306.5,-47.3501 306.5,-61.8398 306.5,-72.9712"/>
</g>
<!-- n2 -->
<g id="node3" class="node"><title>n2</title>
<g id="a_node3"><a xlink:href="http://datamechanics.io/data/mjclawar_rarshad/hospital_scatter" xlink:title="dat:hospital_scatter">
<ellipse fill="#fffc87" stroke="#808080" cx="772.5" cy="-91" rx="81.4863" ry="18"/>
<text text-anchor="middle" x="772.5" y="-87.3" font-family="Times New Roman,serif" font-size="14.00">dat:hospital_scatter</text>
</a>
</g>
</g>
<!-- n8 -->
<g id="node12" class="node"><title>n8</title>
<g id="a_node12"><a xlink:href="http://datamechanics.io/algorithm/mjclawar_rarshad/hospital_scatter" xlink:title="alg:hospital_scatter">
<polygon fill="#fed37f" stroke="black" points="752.13,-383.562 653.5,-396 554.87,-383.562 554.962,-363.438 752.038,-363.438 752.13,-383.562"/>
<text text-anchor="middle" x="653.5" y="-374.3" font-family="Times New Roman,serif" font-size="14.00">alg:hospital_scatter</text>
</a>
</g>
</g>
<!-- n2&#45;&gt;n8 -->
<g id="edge30" class="edge"><title>n2&#45;&gt;n8</title>
<path fill="none" stroke="#fed37f" d="M713,-103.365C683.25,-112.862 653.5,-129.987 653.5,-160.5 653.5,-160.5 653.5,-160.5 653.5,-306 653.5,-321.757 653.5,-339.48 653.5,-353.278"/>
<polygon fill="#fed37f" stroke="#fed37f" points="650,-353.389 653.5,-363.389 657,-353.389 650,-353.389"/>
<text text-anchor="middle" x="688.5" y="-219.5" font-family="Times New Roman,serif" font-size="10.00">wasAttributedTo</text>
</g>
<!-- n12 -->
<g id="node18" class="node"><title>n12</title>
<g id="a_node18"><a xlink:href="http://datamechanics.io/log#a9144e2a5-c7b6-44d8-91a1-6da184bce075" xlink:title="log:a9144e2a5&#45;c7b6&#45;44d8&#45;91a1&#45;6da184bce075">
<polygon fill="#9fb1fc" stroke="#0000ff" points="1055.5,-240 779.5,-240 779.5,-204 1055.5,-204 1055.5,-240"/>
<text text-anchor="middle" x="917.5" y="-218.3" font-family="Times New Roman,serif" font-size="14.00">log:a9144e2a5&#45;c7b6&#45;44d8&#45;91a1&#45;6da184bce075</text>
</a>
</g>
</g>
<!-- n2&#45;&gt;n12 -->
<g id="edge18" class="edge"><title>n2&#45;&gt;n12</title>
<path fill="none" stroke="darkgreen" d="M811.433,-106.947C822.74,-112.307 834.677,-119.033 844.5,-127 868.264,-146.275 888.962,-174.705 902.189,-195.248"/>
<polygon fill="darkgreen" stroke="darkgreen" points="899.274,-197.187 907.556,-203.794 905.202,-193.464 899.274,-197.187"/>
<text text-anchor="middle" x="916.5" y="-159" font-family="Times New Roman,serif" font-size="10.00" fill="darkgreen">wasGeneratedBy</text>
</g>
<!-- b3 -->
<g id="node21" class="node"><title>b3</title>
<ellipse fill="gray" stroke="gray" cx="772.5" cy="-161.5" rx="1.8" ry="1.8"/>
</g>
<!-- n2&#45;&gt;b3 -->
<g id="edge13" class="edge"><title>n2&#45;&gt;b3</title>
<path fill="none" stroke="black" d="M772.5,-109.285C772.5,-127.041 772.5,-152.936 772.5,-159.132"/>
<text text-anchor="middle" x="806.5" y="-130" font-family="Times New Roman,serif" font-size="10.00">wasDerivedFrom</text>
</g>
<!-- ann2 -->
<g id="node4" class="node"><title>ann2</title>
<polygon fill="none" stroke="gray" points="829.5,-36 709.5,-36 709.5,-0 835.5,-0 835.5,-30 829.5,-36"/>
<polyline fill="none" stroke="gray" points="829.5,-36 829.5,-30 "/>
<polyline fill="none" stroke="gray" points="835.5,-30 829.5,-30 "/>
<g id="a_node4_2"><a xlink:href="http://www.w3.org/ns/prov#label" xlink:title="&lt;TABLE&gt;">
<text text-anchor="start" x="719.5" y="-22" font-family="Times New Roman,serif" font-size="10.00">prov:label</text>
</a>
</g>
<text text-anchor="start" x="761.5" y="-22" font-family="Times New Roman,serif" font-size="10.00">Hospital Scatter</text>
<g id="a_node4_3"><a xlink:href="http://www.w3.org/ns/prov#type" xlink:title="&lt;TABLE&gt;">
<text text-anchor="start" x="719.5" y="-9" font-family="Times New Roman,serif" font-size="10.00">prov:type</text>
</a>
</g>
<text text-anchor="start" x="761.5" y="-9" font-family="Times New Roman,serif" font-size="10.00">ont:DataSet</text>
</g>
<!-- ann2&#45;&gt;n2 -->
<g id="edge2" class="edge"><title>ann2&#45;&gt;n2</title>
<path fill="none" stroke="gray" stroke-dasharray="5,2" d="M772.5,-36.1871C772.5,-47.3501 772.5,-61.8398 772.5,-72.9712"/>
</g>
<!-- n3 -->
<g id="node5" class="node"><title>n3</title>
<g id="a_node5"><a xlink:href="http://datamechanics.io/data/mjclawar_rarshad/crime_incidents" xlink:title="dat:crime_incidents">
<ellipse fill="#fffc87" stroke="#808080" cx="1227.5" cy="-305" rx="81.4863" ry="18"/>
<text text-anchor="middle" x="1227.5" y="-301.3" font-family="Times New Roman,serif" font-size="14.00">dat:crime_incidents</text>
</a>
</g>
</g>
<!-- n4 -->
<g id="node6" class="node"><title>n4</title>
<g id="a_node6"><a xlink:href="http://datamechanics.io/data/mjclawar_rarshad/property_assessment" xlink:title="dat:property_assessment">
<ellipse fill="#fffc87" stroke="#808080" cx="318.5" cy="-305" rx="100.983" ry="18"/>
<text text-anchor="middle" x="318.5" y="-301.3" font-family="Times New Roman,serif" font-size="14.00">dat:property_assessment</text>
</a>
</g>
</g>
<!-- n5 -->
<g id="node7" class="node"><title>n5</title>
<g id="a_node7"><a xlink:href="http://datamechanics.io/data/mjclawar_rarshad/hospital_distances" xlink:title="dat:hospital_distances">
<ellipse fill="#fffc87" stroke="#808080" cx="777.5" cy="-305" rx="90.9839" ry="18"/>
<text text-anchor="middle" x="777.5" y="-301.3" font-family="Times New Roman,serif" font-size="14.00">dat:hospital_distances</text>
</a>
</g>
</g>
<!-- n6 -->
<g id="node8" class="node"><title>n6</title>
<g id="a_node8"><a xlink:href="http://datamechanics.io/data/mjclawar_rarshad/crime_knn" xlink:title="dat:crime_knn">
<ellipse fill="#fffc87" stroke="#808080" cx="1230.5" cy="-91" rx="61.99" ry="18"/>
<text text-anchor="middle" x="1230.5" y="-87.3" font-family="Times New Roman,serif" font-size="14.00">dat:crime_knn</text>
</a>
</g>
</g>
<!-- n9 -->
<g id="node14" class="node"><title>n9</title>
<g id="a_node14"><a xlink:href="http://datamechanics.io/algorithm/mjclawar_rarshad/crime_knn" xlink:title="alg:crime_knn">
<polygon fill="#fed37f" stroke="black" points="1417.03,-383.562 1341.5,-396 1265.97,-383.562 1266.04,-363.438 1416.96,-363.438 1417.03,-383.562"/>
<text text-anchor="middle" x="1341.5" y="-374.3" font-family="Times New Roman,serif" font-size="14.00">alg:crime_knn</text>
</a>
</g>
</g>
<!-- n6&#45;&gt;n9 -->
<g id="edge28" class="edge"><title>n6&#45;&gt;n9</title>
<path fill="none" stroke="#fed37f" d="M1173.16,-97.7698C1134.87,-105.163 1091.5,-122.029 1091.5,-160.5 1091.5,-160.5 1091.5,-160.5 1091.5,-306 1091.5,-341.013 1183.38,-359.668 1255.74,-368.93"/>
<polygon fill="#fed37f" stroke="#fed37f" points="1255.46,-372.422 1265.81,-370.176 1256.32,-365.475 1255.46,-372.422"/>
<text text-anchor="middle" x="1126.5" y="-219.5" font-family="Times New Roman,serif" font-size="10.00">wasAttributedTo</text>
</g>
<!-- n10 -->
<g id="node16" class="node"><title>n10</title>
<g id="a_node16"><a xlink:href="http://datamechanics.io/log#a4c8d6bee-6de2-4588-9050-24d4fd7c6368" xlink:title="log:a4c8d6bee&#45;6de2&#45;4588&#45;9050&#45;24d4fd7c6368">
<polygon fill="#9fb1fc" stroke="#0000ff" points="1493.5,-240 1217.5,-240 1217.5,-204 1493.5,-204 1493.5,-240"/>
<text text-anchor="middle" x="1355.5" y="-218.3" font-family="Times New Roman,serif" font-size="14.00">log:a4c8d6bee&#45;6de2&#45;4588&#45;9050&#45;24d4fd7c6368</text>
</a>
</g>
</g>
<!-- n6&#45;&gt;n10 -->
<g id="edge16" class="edge"><title>n6&#45;&gt;n10</title>
<path fill="none" stroke="darkgreen" d="M1268.7,-105.382C1280.49,-110.8 1292.88,-117.952 1302.5,-127 1322.43,-145.755 1336.88,-173.717 1345.6,-194.27"/>
<polygon fill="darkgreen" stroke="darkgreen" points="1342.42,-195.742 1349.43,-203.691 1348.91,-193.109 1342.42,-195.742"/>
<text text-anchor="middle" x="1366.5" y="-159" font-family="Times New Roman,serif" font-size="10.00" fill="darkgreen">wasGeneratedBy</text>
</g>
<!-- b2 -->
<g id="node20" class="node"><title>b2</title>
<ellipse fill="gray" stroke="gray" cx="1230.5" cy="-161.5" rx="1.8" ry="1.8"/>
</g>
<!-- n6&#45;&gt;b2 -->
<g id="edge10" class="edge"><title>n6&#45;&gt;b2</title>
<path fill="none" stroke="black" d="M1230.5,-109.285C1230.5,-127.041 1230.5,-152.936 1230.5,-159.132"/>
<text text-anchor="middle" x="1264.5" y="-130" font-family="Times New Roman,serif" font-size="10.00">wasDerivedFrom</text>
</g>
<!-- ann3 -->
<g id="node9" class="node"><title>ann3</title>
<polygon fill="none" stroke="gray" points="1279.5,-36 1175.5,-36 1175.5,-0 1285.5,-0 1285.5,-30 1279.5,-36"/>
<polyline fill="none" stroke="gray" points="1279.5,-36 1279.5,-30 "/>
<polyline fill="none" stroke="gray" points="1285.5,-30 1279.5,-30 "/>
<g id="a_node9_4"><a xlink:href="http://www.w3.org/ns/prov#label" xlink:title="&lt;TABLE&gt;">
<text text-anchor="start" x="1185.5" y="-22" font-family="Times New Roman,serif" font-size="10.00">prov:label</text>
</a>
</g>
<text text-anchor="start" x="1227.5" y="-22" font-family="Times New Roman,serif" font-size="10.00">Crime KNN</text>
<g id="a_node9_5"><a xlink:href="http://www.w3.org/ns/prov#type" xlink:title="&lt;TABLE&gt;">
<text text-anchor="start" x="1185.5" y="-9" font-family="Times New Roman,serif" font-size="10.00">prov:type</text>
</a>
</g>
<text text-anchor="start" x="1227.5" y="-9" font-family="Times New Roman,serif" font-size="10.00">ont:DataSet</text>
</g>
<!-- ann3&#45;&gt;n6 -->
<g id="edge3" class="edge"><title>ann3&#45;&gt;n6</title>
<path fill="none" stroke="gray" stroke-dasharray="5,2" d="M1230.5,-36.1871C1230.5,-47.3501 1230.5,-61.8398 1230.5,-72.9712"/>
</g>
<!-- ann4 -->
<g id="node11" class="node"><title>ann4</title>
<polygon fill="none" stroke="gray" points="153,-323 0,-323 0,-287 159,-287 159,-317 153,-323"/>
<polyline fill="none" stroke="gray" points="153,-323 153,-317 "/>
<polyline fill="none" stroke="gray" points="159,-317 153,-317 "/>
<g id="a_node11_6"><a xlink:href="http://www.w3.org/ns/prov#type" xlink:title="&lt;TABLE&gt;">
<text text-anchor="start" x="10.5" y="-309" font-family="Times New Roman,serif" font-size="10.00">prov:type</text>
</a>
</g>
<g id="a_node11_7"><a xlink:href="http://www.w3.org/ns/prov#SoftwareAgent" xlink:title="&lt;TABLE&gt;">
<text text-anchor="start" x="67.5" y="-309" font-family="Times New Roman,serif" font-size="10.00">prov:SoftwareAgent</text>
</a>
</g>
<g id="a_node11_8"><a xlink:href="http://datamechanics.io/ontology#Extension" xlink:title="&lt;TABLE&gt;">
<text text-anchor="start" x="10.5" y="-296" font-family="Times New Roman,serif" font-size="10.00">ont:Extension</text>
</a>
</g>
<text text-anchor="start" x="67.5" y="-296" font-family="Times New Roman,serif" font-size="10.00">py</text>
</g>
<!-- ann4&#45;&gt;n7 -->
<g id="edge4" class="edge"><title>ann4&#45;&gt;n7</title>
<path fill="none" stroke="gray" stroke-dasharray="5,2" d="M105.369,-323.006C124.09,-335.314 149.07,-351.736 166.546,-363.225"/>
</g>
<!-- ann5 -->
<g id="node13" class="node"><title>ann5</title>
<polygon fill="none" stroke="gray" points="619,-323 466,-323 466,-287 625,-287 625,-317 619,-323"/>
<polyline fill="none" stroke="gray" points="619,-323 619,-317 "/>
<polyline fill="none" stroke="gray" points="625,-317 619,-317 "/>
<g id="a_node13_9"><a xlink:href="http://www.w3.org/ns/prov#type" xlink:title="&lt;TABLE&gt;">
<text text-anchor="start" x="476.5" y="-309" font-family="Times New Roman,serif" font-size="10.00">prov:type</text>
</a>
</g>
<g id="a_node13_10"><a xlink:href="http://www.w3.org/ns/prov#SoftwareAgent" xlink:title="&lt;TABLE&gt;">
<text text-anchor="start" x="533.5" y="-309" font-family="Times New Roman,serif" font-size="10.00">prov:SoftwareAgent</text>
</a>
</g>
<g id="a_node13_11"><a xlink:href="http://datamechanics.io/ontology#Extension" xlink:title="&lt;TABLE&gt;">
<text text-anchor="start" x="476.5" y="-296" font-family="Times New Roman,serif" font-size="10.00">ont:Extension</text>
</a>
</g>
<text text-anchor="start" x="533.5" y="-296" font-family="Times New Roman,serif" font-size="10.00">py</text>
</g>
<!-- ann5&#45;&gt;n8 -->
<g id="edge5" class="edge"><title>ann5&#45;&gt;n8</title>
<path fill="none" stroke="gray" stroke-dasharray="5,2" d="M571.369,-323.006C590.09,-335.314 615.07,-351.736 632.546,-363.225"/>
</g>
<!-- ann6 -->
<g id="node15" class="node"><title>ann6</title>
<polygon fill="none" stroke="gray" points="1514,-323 1361,-323 1361,-287 1520,-287 1520,-317 1514,-323"/>
<polyline fill="none" stroke="gray" points="1514,-323 1514,-317 "/>
<polyline fill="none" stroke="gray" points="1520,-317 1514,-317 "/>
<g id="a_node15_12"><a xlink:href="http://www.w3.org/ns/prov#type" xlink:title="&lt;TABLE&gt;">
<text text-anchor="start" x="1371.5" y="-309" font-family="Times New Roman,serif" font-size="10.00">prov:type</text>
</a>
</g>
<g id="a_node15_13"><a xlink:href="http://www.w3.org/ns/prov#SoftwareAgent" xlink:title="&lt;TABLE&gt;">
<text text-anchor="start" x="1428.5" y="-309" font-family="Times New Roman,serif" font-size="10.00">prov:SoftwareAgent</text>
</a>
</g>
<g id="a_node15_14"><a xlink:href="http://datamechanics.io/ontology#Extension" xlink:title="&lt;TABLE&gt;">
<text text-anchor="start" x="1371.5" y="-296" font-family="Times New Roman,serif" font-size="10.00">ont:Extension</text>
</a>
</g>
<text text-anchor="start" x="1428.5" y="-296" font-family="Times New Roman,serif" font-size="10.00">py</text>
</g>
<!-- ann6&#45;&gt;n9 -->
<g id="edge6" class="edge"><title>ann6&#45;&gt;n9</title>
<path fill="none" stroke="gray" stroke-dasharray="5,2" d="M1416.79,-323.006C1399.63,-335.314 1376.73,-351.736 1360.71,-363.225"/>
</g>
<!-- n10&#45;&gt;n3 -->
<g id="edge19" class="edge"><title>n10&#45;&gt;n3</title>
<path fill="none" stroke="#8b0000" d="M1328.35,-240.178C1308.96,-252.45 1282.72,-269.055 1261.87,-282.251"/>
<polygon fill="#8b0000" stroke="#8b0000" points="1259.88,-279.37 1253.3,-287.675 1263.62,-285.286 1259.88,-279.37"/>
<text text-anchor="middle" x="1309.5" y="-261" font-family="Times New Roman,serif" font-size="10.00" fill="red">used</text>
</g>
<!-- b6 -->
<g id="node24" class="node"><title>b6</title>
<ellipse fill="gray" stroke="gray" cx="1341.5" cy="-305" rx="1.8" ry="1.8"/>
</g>
<!-- n10&#45;&gt;b6 -->
<g id="edge26" class="edge"><title>n10&#45;&gt;b6</title>
<path fill="none" stroke="#fed37f" d="M1352.53,-240.178C1348.81,-261.726 1342.77,-296.635 1341.67,-302.991"/>
<text text-anchor="middle" x="1390.5" y="-261" font-family="Times New Roman,serif" font-size="10.00">wasAssociatedWith</text>
</g>
<!-- n11&#45;&gt;n4 -->
<g id="edge21" class="edge"><title>n11&#45;&gt;n4</title>
<path fill="none" stroke="#8b0000" d="M423.294,-240.178C403.189,-252.423 375.999,-268.982 354.354,-282.164"/>
<polygon fill="#8b0000" stroke="#8b0000" points="352.476,-279.21 345.756,-287.401 356.117,-285.188 352.476,-279.21"/>
<text text-anchor="middle" x="403.5" y="-261" font-family="Times New Roman,serif" font-size="10.00" fill="red">used</text>
</g>
<!-- b5 -->
<g id="node23" class="node"><title>b5</title>
<ellipse fill="gray" stroke="gray" cx="446.5" cy="-305" rx="1.8" ry="1.8"/>
</g>
<!-- n11&#45;&gt;b5 -->
<g id="edge24" class="edge"><title>n11&#45;&gt;b5</title>
<path fill="none" stroke="#fed37f" d="M450.44,-240.178C449.11,-261.726 446.955,-296.635 446.562,-302.991"/>
<text text-anchor="middle" x="490.5" y="-261" font-family="Times New Roman,serif" font-size="10.00">wasAssociatedWith</text>
</g>
<!-- n12&#45;&gt;n5 -->
<g id="edge20" class="edge"><title>n12&#45;&gt;n5</title>
<path fill="none" stroke="#8b0000" d="M887.81,-240.178C866.41,-252.559 837.386,-269.351 814.481,-282.604"/>
<polygon fill="#8b0000" stroke="#8b0000" points="812.618,-279.638 805.715,-287.675 816.124,-285.697 812.618,-279.638"/>
<text text-anchor="middle" x="866.5" y="-261" font-family="Times New Roman,serif" font-size="10.00" fill="red">used</text>
</g>
<!-- b4 -->
<g id="node22" class="node"><title>b4</title>
<ellipse fill="gray" stroke="gray" cx="896.5" cy="-305" rx="1.8" ry="1.8"/>
</g>
<!-- n12&#45;&gt;b4 -->
<g id="edge22" class="edge"><title>n12&#45;&gt;b4</title>
<path fill="none" stroke="#fed37f" d="M913.046,-240.178C907.46,-261.726 898.41,-296.635 896.762,-302.991"/>
<text text-anchor="middle" x="949.5" y="-261" font-family="Times New Roman,serif" font-size="10.00">wasAssociatedWith</text>
</g>
<!-- b1&#45;&gt;n4 -->
<g id="edge8" class="edge"><title>b1&#45;&gt;n4</title>
<path fill="none" stroke="black" d="M306.432,-163.526C306.129,-168.188 304.889,-187.847 304.5,-204 304.115,-219.995 302.78,-224.093 304.5,-240 305.829,-252.294 308.554,-265.689 311.25,-277.032"/>
<polygon fill="black" stroke="black" points="307.865,-277.923 313.676,-286.782 314.658,-276.232 307.865,-277.923"/>
</g>
<!-- b1&#45;&gt;n11 -->
<g id="edge9" class="edge"><title>b1&#45;&gt;n11</title>
<path fill="none" stroke="gray" d="M307.754,-163.006C315.868,-166.28 361.816,-184.817 399.612,-200.066"/>
<polygon fill="gray" stroke="gray" points="398.434,-203.365 409.018,-203.861 401.054,-196.873 398.434,-203.365"/>
</g>
<!-- b2&#45;&gt;n3 -->
<g id="edge11" class="edge"><title>b2&#45;&gt;n3</title>
<path fill="none" stroke="black" d="M1229.76,-163.452C1226.45,-167.795 1212.91,-186.273 1208.5,-204 1202.37,-228.647 1209.11,-257.137 1216.2,-277.388"/>
<polygon fill="black" stroke="black" points="1212.98,-278.755 1219.77,-286.888 1219.53,-276.296 1212.98,-278.755"/>
</g>
<!-- b2&#45;&gt;n10 -->
<g id="edge12" class="edge"><title>b2&#45;&gt;n10</title>
<path fill="none" stroke="gray" d="M1231.9,-163.157C1239.64,-166.779 1277.91,-184.687 1309.84,-199.63"/>
<polygon fill="gray" stroke="gray" points="1308.53,-202.883 1319.07,-203.952 1311.5,-196.543 1308.53,-202.883"/>
</g>
<!-- b3&#45;&gt;n5 -->
<g id="edge14" class="edge"><title>b3&#45;&gt;n5</title>
<path fill="none" stroke="black" d="M772.432,-163.526C772.129,-168.188 770.889,-187.847 770.5,-204 770.115,-219.995 769.629,-224.024 770.5,-240 771.159,-252.095 772.515,-265.418 773.859,-276.762"/>
<polygon fill="black" stroke="black" points="770.416,-277.436 775.121,-286.928 777.362,-276.573 770.416,-277.436"/>
</g>
<!-- b3&#45;&gt;n12 -->
<g id="edge15" class="edge"><title>b3&#45;&gt;n12</title>
<path fill="none" stroke="gray" d="M773.754,-163.006C781.868,-166.28 827.816,-184.817 865.612,-200.066"/>
<polygon fill="gray" stroke="gray" points="864.434,-203.365 875.018,-203.861 867.054,-196.873 864.434,-203.365"/>
</g>
<!-- b4&#45;&gt;n8 -->
<g id="edge23" class="edge"><title>b4&#45;&gt;n8</title>
<path fill="none" stroke="#fed37f" d="M895.873,-306.79C893.672,-309.509 885.966,-318.558 877.5,-323 842.057,-341.598 800.1,-353.907 762.136,-362.002"/>
<polygon fill="#fed37f" stroke="#fed37f" points="761.152,-358.631 752.061,-364.073 762.561,-365.488 761.152,-358.631"/>
</g>
<!-- b5&#45;&gt;n7 -->
<g id="edge25" class="edge"><title>b5&#45;&gt;n7</title>
<path fill="none" stroke="#fed37f" d="M445.919,-306.796C443.876,-309.535 436.698,-318.642 428.5,-323 393.311,-341.707 351.907,-353.949 313.438,-361.954"/>
<polygon fill="#fed37f" stroke="#fed37f" points="312.322,-358.607 303.202,-364 313.694,-365.472 312.322,-358.607"/>
</g>
<!-- b6&#45;&gt;n9 -->
<g id="edge27" class="edge"><title>b6&#45;&gt;n9</title>
<path fill="none" stroke="#fed37f" d="M1341.5,-307.004C1341.5,-312.02 1341.5,-334.852 1341.5,-353.095"/>
<polygon fill="#fed37f" stroke="#fed37f" points="1338,-353.137 1341.5,-363.137 1345,-353.137 1338,-353.137"/>
</g>
</g>
</svg>
