<?xml version="1.0" encoding="UTF-8" standalone="no"?>
<!DOCTYPE svg PUBLIC "-//W3C//DTD SVG 1.1//EN"
 "http://www.w3.org/Graphics/SVG/1.1/DTD/svg11.dtd">
<!-- Generated by graphviz version 2.38.0 (20140413.2041)
 -->
<!-- Title: G Pages: 1 -->
<svg width="594pt" height="404pt"
 viewBox="0.00 0.00 593.50 404.00" xmlns="http://www.w3.org/2000/svg" xmlns:xlink="http://www.w3.org/1999/xlink">
<g id="graph0" class="graph" transform="scale(1 1) rotate(0) translate(4 400)">
<title>G</title>
<polygon fill="white" stroke="none" points="-4,4 -4,-400 589.5,-400 589.5,4 -4,4"/>
<!-- n1 -->
<g id="node1" class="node"><title>n1</title>
<g id="a_node1"><a xlink:href="http://datamechanics.io/algorithm/mjclawar_rarshad/crime_knn" xlink:title="alg:crime_knn">
<polygon fill="#fed37f" stroke="black" points="263.034,-383.562 187.5,-396 111.966,-383.562 112.036,-363.438 262.964,-363.438 263.034,-383.562"/>
<text text-anchor="middle" x="187.5" y="-374.3" font-family="Times New Roman,serif" font-size="14.00">alg:crime_knn</text>
</a>
</g>
</g>
<!-- ann1 -->
<g id="node2" class="node"><title>ann1</title>
<polygon fill="none" stroke="gray" points="153,-323 0,-323 0,-287 159,-287 159,-317 153,-323"/>
<polyline fill="none" stroke="gray" points="153,-323 153,-317 "/>
<polyline fill="none" stroke="gray" points="159,-317 153,-317 "/>
<g id="a_node2_0"><a xlink:href="http://www.w3.org/ns/prov#type" xlink:title="&lt;TABLE&gt;">
<text text-anchor="start" x="10.5" y="-309" font-family="Times New Roman,serif" font-size="10.00">prov:type</text>
</a>
</g>
<g id="a_node2_1"><a xlink:href="http://www.w3.org/ns/prov#SoftwareAgent" xlink:title="&lt;TABLE&gt;">
<text text-anchor="start" x="67.5" y="-309" font-family="Times New Roman,serif" font-size="10.00">prov:SoftwareAgent</text>
</a>
</g>
<g id="a_node2_2"><a xlink:href="http://datamechanics.io/ontology#Extension" xlink:title="&lt;TABLE&gt;">
<text text-anchor="start" x="10.5" y="-296" font-family="Times New Roman,serif" font-size="10.00">ont:Extension</text>
</a>
</g>
<text text-anchor="start" x="67.5" y="-296" font-family="Times New Roman,serif" font-size="10.00">py</text>
</g>
<!-- ann1&#45;&gt;n1 -->
<g id="edge1" class="edge"><title>ann1&#45;&gt;n1</title>
<path fill="none" stroke="gray" stroke-dasharray="5,2" d="M105.369,-323.006C124.09,-335.314 149.07,-351.736 166.546,-363.225"/>
</g>
<!-- n2 -->
<g id="node3" class="node"><title>n2</title>
<g id="a_node3"><a xlink:href="http://datamechanics.io/data/mjclawar_rarshad/crime_knn" xlink:title="dat:crime_knn">
<ellipse fill="#fffc87" stroke="#808080" cx="305.5" cy="-91" rx="61.99" ry="18"/>
<text text-anchor="middle" x="305.5" y="-87.3" font-family="Times New Roman,serif" font-size="14.00">dat:crime_knn</text>
</a>
</g>
</g>
<!-- n2&#45;&gt;n1 -->
<g id="edge7" class="edge"><title>n2&#45;&gt;n1</title>
<path fill="none" stroke="#fed37f" d="M254.43,-101.117C222.539,-110.084 187.5,-127.456 187.5,-160.5 187.5,-160.5 187.5,-160.5 187.5,-306 187.5,-321.757 187.5,-339.48 187.5,-353.278"/>
<polygon fill="#fed37f" stroke="#fed37f" points="184,-353.389 187.5,-363.389 191,-353.389 184,-353.389"/>
<text text-anchor="middle" x="222.5" y="-219.5" font-family="Times New Roman,serif" font-size="10.00">wasAttributedTo</text>
</g>
<!-- n4 -->
<g id="node6" class="node"><title>n4</title>
<g id="a_node6"><a xlink:href="http://datamechanics.io/log#a60585f19-ddf9-4c60-99ea-afb6d3b1221d" xlink:title="log:a60585f19&#45;ddf9&#45;4c60&#45;99ea&#45;afb6d3b1221d">
<polygon fill="#9fb1fc" stroke="#0000ff" points="585.5,-240 313.5,-240 313.5,-204 585.5,-204 585.5,-240"/>
<text text-anchor="middle" x="449.5" y="-218.3" font-family="Times New Roman,serif" font-size="14.00">log:a60585f19&#45;ddf9&#45;4c60&#45;99ea&#45;afb6d3b1221d</text>
</a>
</g>
</g>
<!-- n2&#45;&gt;n4 -->
<g id="edge8" class="edge"><title>n2&#45;&gt;n4</title>
<path fill="none" stroke="darkgreen" d="M341.869,-105.694C353.926,-111.236 366.95,-118.384 377.5,-127 401.078,-146.255 421.47,-174.688 434.473,-195.237"/>
<polygon fill="darkgreen" stroke="darkgreen" points="431.518,-197.113 439.747,-203.786 437.476,-193.438 431.518,-197.113"/>
<text text-anchor="middle" x="447.5" y="-159" font-family="Times New Roman,serif" font-size="10.00" fill="darkgreen">wasGeneratedBy</text>
</g>
<!-- b1 -->
<g id="node7" class="node"><title>b1</title>
<ellipse fill="gray" stroke="gray" cx="305.5" cy="-161.5" rx="1.8" ry="1.8"/>
</g>
<!-- n2&#45;&gt;b1 -->
<g id="edge3" class="edge"><title>n2&#45;&gt;b1</title>
<path fill="none" stroke="black" d="M305.5,-109.285C305.5,-127.041 305.5,-152.936 305.5,-159.132"/>
<text text-anchor="middle" x="339.5" y="-130" font-family="Times New Roman,serif" font-size="10.00">wasDerivedFrom</text>
</g>
<!-- ann2 -->
<g id="node4" class="node"><title>ann2</title>
<polygon fill="none" stroke="gray" points="354.5,-36 250.5,-36 250.5,-0 360.5,-0 360.5,-30 354.5,-36"/>
<polyline fill="none" stroke="gray" points="354.5,-36 354.5,-30 "/>
<polyline fill="none" stroke="gray" points="360.5,-30 354.5,-30 "/>
<g id="a_node4_3"><a xlink:href="http://www.w3.org/ns/prov#label" xlink:title="&lt;TABLE&gt;">
<text text-anchor="start" x="260.5" y="-22" font-family="Times New Roman,serif" font-size="10.00">prov:label</text>
</a>
</g>
<text text-anchor="start" x="302.5" y="-22" font-family="Times New Roman,serif" font-size="10.00">Crime KNN</text>
<g id="a_node4_4"><a xlink:href="http://www.w3.org/ns/prov#type" xlink:title="&lt;TABLE&gt;">
<text text-anchor="start" x="260.5" y="-9" font-family="Times New Roman,serif" font-size="10.00">prov:type</text>
</a>
</g>
<text text-anchor="start" x="302.5" y="-9" font-family="Times New Roman,serif" font-size="10.00">ont:DataSet</text>
</g>
<!-- ann2&#45;&gt;n2 -->
<g id="edge2" class="edge"><title>ann2&#45;&gt;n2</title>
<path fill="none" stroke="gray" stroke-dasharray="5,2" d="M305.5,-36.1871C305.5,-47.3501 305.5,-61.8398 305.5,-72.9712"/>
</g>
<!-- n3 -->
<g id="node5" class="node"><title>n3</title>
<g id="a_node5"><a xlink:href="http://datamechanics.io/data/mjclawar_rarshad/crime_incidents" xlink:title="dat:crime_incidents">
<ellipse fill="#fffc87" stroke="#808080" cx="309.5" cy="-305" rx="81.4863" ry="18"/>
<text text-anchor="middle" x="309.5" y="-301.3" font-family="Times New Roman,serif" font-size="14.00">dat:crime_incidents</text>
</a>
</g>
</g>
<!-- n4&#45;&gt;n3 -->
<g id="edge6" class="edge"><title>n4&#45;&gt;n3</title>
<path fill="none" stroke="#8b0000" d="M419.81,-240.178C398.268,-252.641 369.002,-269.574 346.027,-282.867"/>
<polygon fill="#8b0000" stroke="#8b0000" points="344.146,-279.911 337.243,-287.949 347.652,-285.97 344.146,-279.911"/>
<text text-anchor="middle" x="397.5" y="-261" font-family="Times New Roman,serif" font-size="10.00" fill="red">used</text>
</g>
<!-- b2 -->
<g id="node8" class="node"><title>b2</title>
<ellipse fill="gray" stroke="gray" cx="416.5" cy="-305" rx="1.8" ry="1.8"/>
</g>
<!-- n4&#45;&gt;b2 -->
<g id="edge9" class="edge"><title>n4&#45;&gt;b2</title>
<path fill="none" stroke="#fed37f" d="M442.502,-240.178C433.723,-261.726 419.501,-296.635 416.911,-302.991"/>
<text text-anchor="middle" x="475.5" y="-261" font-family="Times New Roman,serif" font-size="10.00">wasAssociatedWith</text>
</g>
<!-- b1&#45;&gt;n3 -->
<g id="edge4" class="edge"><title>b1&#45;&gt;n3</title>
<path fill="none" stroke="black" d="M305.466,-163.527C305.314,-168.191 304.694,-187.858 304.5,-204 304.307,-219.999 303.876,-224.012 304.5,-240 304.971,-252.068 305.939,-265.388 306.899,-276.736"/>
<polygon fill="black" stroke="black" points="303.431,-277.256 307.801,-286.908 310.404,-276.638 303.431,-277.256"/>
</g>
<!-- b1&#45;&gt;n4 -->
<g id="edge5" class="edge"><title>b1&#45;&gt;n4</title>
<path fill="none" stroke="gray" d="M306.745,-163.006C314.804,-166.28 360.434,-184.817 397.97,-200.066"/>
<polygon fill="gray" stroke="gray" points="396.729,-203.339 407.311,-203.861 399.363,-196.854 396.729,-203.339"/>
</g>
<!-- b2&#45;&gt;n1 -->
<g id="edge10" class="edge"><title>b2&#45;&gt;n1</title>
<path fill="none" stroke="#fed37f" d="M415.958,-306.789C414.051,-309.504 407.336,-318.541 399.5,-323 361.005,-344.908 313.589,-358.062 273.368,-365.891"/>
<polygon fill="#fed37f" stroke="#fed37f" points="272.495,-362.494 263.307,-367.769 273.78,-369.375 272.495,-362.494"/>
</g>
</g>
</svg>
