<?xml version="1.0" encoding="UTF-8" standalone="no"?>
<!DOCTYPE svg PUBLIC "-//W3C//DTD SVG 1.1//EN"
 "http://www.w3.org/Graphics/SVG/1.1/DTD/svg11.dtd">
<!-- Generated by graphviz version 2.38.0 (20140413.2041)
 -->
<!-- Title: G Pages: 1 -->
<svg width="1046pt" height="404pt"
 viewBox="0.00 0.00 1046.00 404.00" xmlns="http://www.w3.org/2000/svg" xmlns:xlink="http://www.w3.org/1999/xlink">
<g id="graph0" class="graph" transform="scale(1 1) rotate(0) translate(4 400)">
<title>G</title>
<polygon fill="white" stroke="none" points="-4,4 -4,-400 1042,-400 1042,4 -4,4"/>
<!-- n1 -->
<g id="node1" class="node"><title>n1</title>
<g id="a_node1"><a xlink:href="http://datamechanics.io/log#afbcc35ec-089c-49e5-8e67-7c396d9ca3b1" xlink:title="log:afbcc35ec&#45;089c&#45;49e5&#45;8e67&#45;7c396d9ca3b1">
<polygon fill="#9fb1fc" stroke="#0000ff" points="587.5,-240 313.5,-240 313.5,-204 587.5,-204 587.5,-240"/>
<text text-anchor="middle" x="450.5" y="-218.3" font-family="Times New Roman,serif" font-size="14.00">log:afbcc35ec&#45;089c&#45;49e5&#45;8e67&#45;7c396d9ca3b1</text>
</a>
</g>
</g>
<!-- n5 -->
<g id="node7" class="node"><title>n5</title>
<g id="a_node7"><a xlink:href="http://datamechanics.io/data/mjclawar_rarshad/crime_incidents" xlink:title="dat:crime_incidents">
<ellipse fill="#fffc87" stroke="#808080" cx="305.5" cy="-305" rx="81.4863" ry="18"/>
<text text-anchor="middle" x="305.5" y="-301.3" font-family="Times New Roman,serif" font-size="14.00">dat:crime_incidents</text>
</a>
</g>
</g>
<!-- n1&#45;&gt;n5 -->
<g id="edge5" class="edge"><title>n1&#45;&gt;n5</title>
<path fill="none" stroke="#8b0000" d="M419.749,-240.178C397.34,-252.696 366.858,-269.724 343.016,-283.043"/>
<polygon fill="#8b0000" stroke="#8b0000" points="341.257,-280.016 334.234,-287.949 344.671,-286.127 341.257,-280.016"/>
<text text-anchor="middle" x="397.5" y="-261" font-family="Times New Roman,serif" font-size="10.00" fill="red">used</text>
</g>
<!-- b1 -->
<g id="node13" class="node"><title>b1</title>
<ellipse fill="gray" stroke="gray" cx="424.5" cy="-305" rx="1.8" ry="1.8"/>
</g>
<!-- n1&#45;&gt;b1 -->
<g id="edge7" class="edge"><title>n1&#45;&gt;b1</title>
<path fill="none" stroke="#fed37f" d="M444.986,-240.178C438.07,-261.726 426.864,-296.635 424.824,-302.991"/>
<text text-anchor="middle" x="480.5" y="-261" font-family="Times New Roman,serif" font-size="10.00">wasAssociatedWith</text>
</g>
<!-- n2 -->
<g id="node2" class="node"><title>n2</title>
<g id="a_node2"><a xlink:href="http://datamechanics.io/log#a028ee539-e606-46b2-9f6e-b33bc047a8f0" xlink:title="log:a028ee539&#45;e606&#45;46b2&#45;9f6e&#45;b33bc047a8f0">
<polygon fill="#9fb1fc" stroke="#0000ff" points="1038,-240 767,-240 767,-204 1038,-204 1038,-240"/>
<text text-anchor="middle" x="902.5" y="-218.3" font-family="Times New Roman,serif" font-size="14.00">log:a028ee539&#45;e606&#45;46b2&#45;9f6e&#45;b33bc047a8f0</text>
</a>
</g>
</g>
<!-- n7 -->
<g id="node10" class="node"><title>n7</title>
<g id="a_node10"><a xlink:href="http://datamechanics.io/data/mjclawar_rarshad/property_assessment" xlink:title="dat:property_assessment">
<ellipse fill="#fffc87" stroke="#808080" cx="772.5" cy="-305" rx="100.983" ry="18"/>
<text text-anchor="middle" x="772.5" y="-301.3" font-family="Times New Roman,serif" font-size="14.00">dat:property_assessment</text>
</a>
</g>
</g>
<!-- n2&#45;&gt;n7 -->
<g id="edge6" class="edge"><title>n2&#45;&gt;n7</title>
<path fill="none" stroke="#8b0000" d="M874.93,-240.178C855.366,-252.368 828.938,-268.835 807.827,-281.988"/>
<polygon fill="#8b0000" stroke="#8b0000" points="805.777,-279.142 799.141,-287.401 809.479,-285.083 805.777,-279.142"/>
<text text-anchor="middle" x="854.5" y="-261" font-family="Times New Roman,serif" font-size="10.00" fill="red">used</text>
</g>
<!-- b2 -->
<g id="node14" class="node"><title>b2</title>
<ellipse fill="gray" stroke="gray" cx="894.5" cy="-305" rx="1.8" ry="1.8"/>
</g>
<!-- n2&#45;&gt;b2 -->
<g id="edge9" class="edge"><title>n2&#45;&gt;b2</title>
<path fill="none" stroke="#fed37f" d="M900.803,-240.178C898.675,-261.726 895.227,-296.635 894.6,-302.991"/>
<text text-anchor="middle" x="939.5" y="-261" font-family="Times New Roman,serif" font-size="10.00">wasAssociatedWith</text>
</g>
<!-- n3 -->
<g id="node3" class="node"><title>n3</title>
<g id="a_node3"><a xlink:href="http://datamechanics.io/algorithm/mjclawar_rarshad/home_value_model" xlink:title="alg:home_value_model">
<polygon fill="#fed37f" stroke="black" points="756.372,-383.562 640.5,-396 524.628,-383.562 524.736,-363.438 756.264,-363.438 756.372,-383.562"/>
<text text-anchor="middle" x="640.5" y="-374.3" font-family="Times New Roman,serif" font-size="14.00">alg:home_value_model</text>
</a>
</g>
</g>
<!-- ann1 -->
<g id="node4" class="node"><title>ann1</title>
<polygon fill="none" stroke="gray" points="606,-323 453,-323 453,-287 612,-287 612,-317 606,-323"/>
<polyline fill="none" stroke="gray" points="606,-323 606,-317 "/>
<polyline fill="none" stroke="gray" points="612,-317 606,-317 "/>
<g id="a_node4_0"><a xlink:href="http://www.w3.org/ns/prov#type" xlink:title="&lt;TABLE&gt;">
<text text-anchor="start" x="463.5" y="-309" font-family="Times New Roman,serif" font-size="10.00">prov:type</text>
</a>
</g>
<g id="a_node4_1"><a xlink:href="http://www.w3.org/ns/prov#SoftwareAgent" xlink:title="&lt;TABLE&gt;">
<text text-anchor="start" x="520.5" y="-309" font-family="Times New Roman,serif" font-size="10.00">prov:SoftwareAgent</text>
</a>
</g>
<g id="a_node4_2"><a xlink:href="http://datamechanics.io/ontology#Extension" xlink:title="&lt;TABLE&gt;">
<text text-anchor="start" x="463.5" y="-296" font-family="Times New Roman,serif" font-size="10.00">ont:Extension</text>
</a>
</g>
<text text-anchor="start" x="520.5" y="-296" font-family="Times New Roman,serif" font-size="10.00">py</text>
</g>
<!-- ann1&#45;&gt;n3 -->
<g id="edge1" class="edge"><title>ann1&#45;&gt;n3</title>
<path fill="none" stroke="gray" stroke-dasharray="5,2" d="M558.369,-323.006C577.09,-335.314 602.07,-351.736 619.546,-363.225"/>
</g>
<!-- n4 -->
<g id="node5" class="node"><title>n4</title>
<g id="a_node5"><a xlink:href="http://datamechanics.io/algorithm/mjclawar_rarshad/crime_knn" xlink:title="alg:crime_knn">
<polygon fill="#fed37f" stroke="black" points="263.034,-383.562 187.5,-396 111.966,-383.562 112.036,-363.438 262.964,-363.438 263.034,-383.562"/>
<text text-anchor="middle" x="187.5" y="-374.3" font-family="Times New Roman,serif" font-size="14.00">alg:crime_knn</text>
</a>
</g>
</g>
<!-- ann2 -->
<g id="node6" class="node"><title>ann2</title>
<polygon fill="none" stroke="gray" points="153,-323 0,-323 0,-287 159,-287 159,-317 153,-323"/>
<polyline fill="none" stroke="gray" points="153,-323 153,-317 "/>
<polyline fill="none" stroke="gray" points="159,-317 153,-317 "/>
<g id="a_node6_3"><a xlink:href="http://www.w3.org/ns/prov#type" xlink:title="&lt;TABLE&gt;">
<text text-anchor="start" x="10.5" y="-309" font-family="Times New Roman,serif" font-size="10.00">prov:type</text>
</a>
</g>
<g id="a_node6_4"><a xlink:href="http://www.w3.org/ns/prov#SoftwareAgent" xlink:title="&lt;TABLE&gt;">
<text text-anchor="start" x="67.5" y="-309" font-family="Times New Roman,serif" font-size="10.00">prov:SoftwareAgent</text>
</a>
</g>
<g id="a_node6_5"><a xlink:href="http://datamechanics.io/ontology#Extension" xlink:title="&lt;TABLE&gt;">
<text text-anchor="start" x="10.5" y="-296" font-family="Times New Roman,serif" font-size="10.00">ont:Extension</text>
</a>
</g>
<text text-anchor="start" x="67.5" y="-296" font-family="Times New Roman,serif" font-size="10.00">py</text>
</g>
<!-- ann2&#45;&gt;n4 -->
<g id="edge2" class="edge"><title>ann2&#45;&gt;n4</title>
<path fill="none" stroke="gray" stroke-dasharray="5,2" d="M105.369,-323.006C124.09,-335.314 149.07,-351.736 166.546,-363.225"/>
</g>
<!-- n6 -->
<g id="node8" class="node"><title>n6</title>
<g id="a_node8"><a xlink:href="http://datamechanics.io/data/mjclawar_rarshad/home_value_model" xlink:title="dat:home_value_model">
<ellipse fill="#fffc87" stroke="#808080" cx="758.5" cy="-91" rx="94.7833" ry="18"/>
<text text-anchor="middle" x="758.5" y="-87.3" font-family="Times New Roman,serif" font-size="14.00">dat:home_value_model</text>
</a>
</g>
</g>
<!-- n6&#45;&gt;n2 -->
<g id="edge20" class="edge"><title>n6&#45;&gt;n2</title>
<path fill="none" stroke="darkgreen" d="M798.586,-107.441C809.559,-112.71 821.027,-119.264 830.5,-127 854.078,-146.255 874.47,-174.688 887.473,-195.237"/>
<polygon fill="darkgreen" stroke="darkgreen" points="884.518,-197.113 892.747,-203.786 890.476,-193.438 884.518,-197.113"/>
<text text-anchor="middle" x="900.5" y="-159" font-family="Times New Roman,serif" font-size="10.00" fill="darkgreen">wasGeneratedBy</text>
</g>
<!-- n6&#45;&gt;n3 -->
<g id="edge11" class="edge"><title>n6&#45;&gt;n3</title>
<path fill="none" stroke="#fed37f" d="M696.045,-104.663C667.74,-114.413 640.5,-131.364 640.5,-160.5 640.5,-160.5 640.5,-160.5 640.5,-306 640.5,-321.757 640.5,-339.48 640.5,-353.278"/>
<polygon fill="#fed37f" stroke="#fed37f" points="637,-353.389 640.5,-363.389 644,-353.389 637,-353.389"/>
<text text-anchor="middle" x="675.5" y="-219.5" font-family="Times New Roman,serif" font-size="10.00">wasAttributedTo</text>
</g>
<!-- b4 -->
<g id="node16" class="node"><title>b4</title>
<ellipse fill="gray" stroke="gray" cx="758.5" cy="-161.5" rx="1.8" ry="1.8"/>
</g>
<!-- n6&#45;&gt;b4 -->
<g id="edge16" class="edge"><title>n6&#45;&gt;b4</title>
<path fill="none" stroke="black" d="M758.5,-109.285C758.5,-127.041 758.5,-152.936 758.5,-159.132"/>
<text text-anchor="middle" x="792.5" y="-130" font-family="Times New Roman,serif" font-size="10.00">wasDerivedFrom</text>
</g>
<!-- ann3 -->
<g id="node9" class="node"><title>ann3</title>
<polygon fill="none" stroke="gray" points="822,-36 689,-36 689,-0 828,-0 828,-30 822,-36"/>
<polyline fill="none" stroke="gray" points="822,-36 822,-30 "/>
<polyline fill="none" stroke="gray" points="828,-30 822,-30 "/>
<g id="a_node9_6"><a xlink:href="http://www.w3.org/ns/prov#label" xlink:title="&lt;TABLE&gt;">
<text text-anchor="start" x="699.5" y="-22" font-family="Times New Roman,serif" font-size="10.00">prov:label</text>
</a>
</g>
<text text-anchor="start" x="741.5" y="-22" font-family="Times New Roman,serif" font-size="10.00">Home Value Model</text>
<g id="a_node9_7"><a xlink:href="http://www.w3.org/ns/prov#type" xlink:title="&lt;TABLE&gt;">
<text text-anchor="start" x="699.5" y="-9" font-family="Times New Roman,serif" font-size="10.00">prov:type</text>
</a>
</g>
<text text-anchor="start" x="741.5" y="-9" font-family="Times New Roman,serif" font-size="10.00">ont:DataSet</text>
</g>
<!-- ann3&#45;&gt;n6 -->
<g id="edge3" class="edge"><title>ann3&#45;&gt;n6</title>
<path fill="none" stroke="gray" stroke-dasharray="5,2" d="M758.5,-36.1871C758.5,-47.3501 758.5,-61.8398 758.5,-72.9712"/>
</g>
<!-- n8 -->
<g id="node11" class="node"><title>n8</title>
<g id="a_node11"><a xlink:href="http://datamechanics.io/data/mjclawar_rarshad/crime_knn" xlink:title="dat:crime_knn">
<ellipse fill="#fffc87" stroke="#808080" cx="306.5" cy="-91" rx="61.99" ry="18"/>
<text text-anchor="middle" x="306.5" y="-87.3" font-family="Times New Roman,serif" font-size="14.00">dat:crime_knn</text>
</a>
</g>
</g>
<!-- n8&#45;&gt;n1 -->
<g id="edge19" class="edge"><title>n8&#45;&gt;n1</title>
<path fill="none" stroke="darkgreen" d="M342.869,-105.694C354.926,-111.236 367.95,-118.384 378.5,-127 402.078,-146.255 422.47,-174.688 435.473,-195.237"/>
<polygon fill="darkgreen" stroke="darkgreen" points="432.518,-197.113 440.747,-203.786 438.476,-193.438 432.518,-197.113"/>
<text text-anchor="middle" x="449.5" y="-159" font-family="Times New Roman,serif" font-size="10.00" fill="darkgreen">wasGeneratedBy</text>
</g>
<!-- n8&#45;&gt;n4 -->
<g id="edge12" class="edge"><title>n8&#45;&gt;n4</title>
<path fill="none" stroke="#fed37f" d="M254.997,-100.986C222.836,-109.893 187.5,-127.246 187.5,-160.5 187.5,-160.5 187.5,-160.5 187.5,-306 187.5,-321.757 187.5,-339.48 187.5,-353.278"/>
<polygon fill="#fed37f" stroke="#fed37f" points="184,-353.389 187.5,-363.389 191,-353.389 184,-353.389"/>
<text text-anchor="middle" x="222.5" y="-219.5" font-family="Times New Roman,serif" font-size="10.00">wasAttributedTo</text>
</g>
<!-- b3 -->
<g id="node15" class="node"><title>b3</title>
<ellipse fill="gray" stroke="gray" cx="306.5" cy="-161.5" rx="1.8" ry="1.8"/>
</g>
<!-- n8&#45;&gt;b3 -->
<g id="edge13" class="edge"><title>n8&#45;&gt;b3</title>
<path fill="none" stroke="black" d="M306.5,-109.285C306.5,-127.041 306.5,-152.936 306.5,-159.132"/>
<text text-anchor="middle" x="340.5" y="-130" font-family="Times New Roman,serif" font-size="10.00">wasDerivedFrom</text>
</g>
<!-- ann4 -->
<g id="node12" class="node"><title>ann4</title>
<polygon fill="none" stroke="gray" points="355.5,-36 251.5,-36 251.5,-0 361.5,-0 361.5,-30 355.5,-36"/>
<polyline fill="none" stroke="gray" points="355.5,-36 355.5,-30 "/>
<polyline fill="none" stroke="gray" points="361.5,-30 355.5,-30 "/>
<g id="a_node12_8"><a xlink:href="http://www.w3.org/ns/prov#label" xlink:title="&lt;TABLE&gt;">
<text text-anchor="start" x="261.5" y="-22" font-family="Times New Roman,serif" font-size="10.00">prov:label</text>
</a>
</g>
<text text-anchor="start" x="303.5" y="-22" font-family="Times New Roman,serif" font-size="10.00">Crime KNN</text>
<g id="a_node12_9"><a xlink:href="http://www.w3.org/ns/prov#type" xlink:title="&lt;TABLE&gt;">
<text text-anchor="start" x="261.5" y="-9" font-family="Times New Roman,serif" font-size="10.00">prov:type</text>
</a>
</g>
<text text-anchor="start" x="303.5" y="-9" font-family="Times New Roman,serif" font-size="10.00">ont:DataSet</text>
</g>
<!-- ann4&#45;&gt;n8 -->
<g id="edge4" class="edge"><title>ann4&#45;&gt;n8</title>
<path fill="none" stroke="gray" stroke-dasharray="5,2" d="M306.5,-36.1871C306.5,-47.3501 306.5,-61.8398 306.5,-72.9712"/>
</g>
<!-- b1&#45;&gt;n4 -->
<g id="edge8" class="edge"><title>b1&#45;&gt;n4</title>
<path fill="none" stroke="#fed37f" d="M423.45,-306.763C419.786,-309.392 407.149,-318.183 395.5,-323 355.465,-339.556 308.952,-352.203 270.076,-361.081"/>
<polygon fill="#fed37f" stroke="#fed37f" points="268.841,-357.771 259.847,-363.371 270.37,-364.601 268.841,-357.771"/>
</g>
<!-- b2&#45;&gt;n3 -->
<g id="edge10" class="edge"><title>b2&#45;&gt;n3</title>
<path fill="none" stroke="#fed37f" d="M894.188,-306.798C893.072,-309.545 888.993,-318.673 882.5,-323 848.321,-345.778 806.003,-359.078 766.361,-366.801"/>
<polygon fill="#fed37f" stroke="#fed37f" points="765.546,-363.392 756.346,-368.646 766.815,-370.276 765.546,-363.392"/>
</g>
<!-- b3&#45;&gt;n1 -->
<g id="edge15" class="edge"><title>b3&#45;&gt;n1</title>
<path fill="none" stroke="gray" d="M307.745,-163.006C315.804,-166.28 361.434,-184.817 398.97,-200.066"/>
<polygon fill="gray" stroke="gray" points="397.729,-203.339 408.311,-203.861 400.363,-196.854 397.729,-203.339"/>
</g>
<!-- b3&#45;&gt;n5 -->
<g id="edge14" class="edge"><title>b3&#45;&gt;n5</title>
<path fill="none" stroke="black" d="M306.432,-163.526C306.129,-168.188 304.889,-187.847 304.5,-204 303.908,-228.57 304.277,-256.544 304.724,-276.645"/>
<polygon fill="black" stroke="black" points="301.226,-276.743 304.968,-286.655 308.224,-276.572 301.226,-276.743"/>
</g>
<!-- b4&#45;&gt;n2 -->
<g id="edge18" class="edge"><title>b4&#45;&gt;n2</title>
<path fill="none" stroke="gray" d="M759.745,-163.006C767.804,-166.28 813.434,-184.817 850.97,-200.066"/>
<polygon fill="gray" stroke="gray" points="849.729,-203.339 860.311,-203.861 852.363,-196.854 849.729,-203.339"/>
</g>
<!-- b4&#45;&gt;n7 -->
<g id="edge17" class="edge"><title>b4&#45;&gt;n7</title>
<path fill="none" stroke="black" d="M758.412,-163.597C757.871,-170.531 755.145,-208.966 758.5,-240 759.829,-252.294 762.554,-265.689 765.25,-277.032"/>
<polygon fill="black" stroke="black" points="761.865,-277.923 767.676,-286.782 768.658,-276.232 761.865,-277.923"/>
</g>
</g>
</svg>
