<?xml version="1.0" encoding="UTF-8" standalone="no"?>
<!DOCTYPE svg PUBLIC "-//W3C//DTD SVG 1.1//EN"
 "http://www.w3.org/Graphics/SVG/1.1/DTD/svg11.dtd">
<!-- Generated by graphviz version 2.38.0 (20140413.2041)
 -->
<!-- Title: G Pages: 1 -->
<svg width="1040pt" height="404pt"
 viewBox="0.00 0.00 1040.00 404.00" xmlns="http://www.w3.org/2000/svg" xmlns:xlink="http://www.w3.org/1999/xlink">
<g id="graph0" class="graph" transform="scale(1 1) rotate(0) translate(4 400)">
<title>G</title>
<polygon fill="white" stroke="none" points="-4,4 -4,-400 1036,-400 1036,4 -4,4"/>
<!-- n1 -->
<g id="node1" class="node"><title>n1</title>
<g id="a_node1"><a xlink:href="http://datamechanics.io/data/mjclawar_rarshad/hospital_scatter" xlink:title="dat:hospital_scatter">
<ellipse fill="#fffc87" stroke="#808080" cx="305.5" cy="-91" rx="81.4863" ry="18"/>
<text text-anchor="middle" x="305.5" y="-87.3" font-family="Times New Roman,serif" font-size="14.00">dat:hospital_scatter</text>
</a>
</g>
</g>
<!-- n6 -->
<g id="node9" class="node"><title>n6</title>
<g id="a_node9"><a xlink:href="http://datamechanics.io/algorithm/mjclawar_rarshad/hospital_scatter" xlink:title="alg:hospital_scatter">
<polygon fill="#fed37f" stroke="black" points="286.13,-383.562 187.5,-396 88.8699,-383.562 88.962,-363.438 286.038,-363.438 286.13,-383.562"/>
<text text-anchor="middle" x="187.5" y="-374.3" font-family="Times New Roman,serif" font-size="14.00">alg:hospital_scatter</text>
</a>
</g>
</g>
<!-- n1&#45;&gt;n6 -->
<g id="edge6" class="edge"><title>n1&#45;&gt;n6</title>
<path fill="none" stroke="#fed37f" d="M246.5,-103.51C217,-113.055 187.5,-130.18 187.5,-160.5 187.5,-160.5 187.5,-160.5 187.5,-306 187.5,-321.757 187.5,-339.48 187.5,-353.278"/>
<polygon fill="#fed37f" stroke="#fed37f" points="184,-353.389 187.5,-363.389 191,-353.389 184,-353.389"/>
<text text-anchor="middle" x="222.5" y="-219.5" font-family="Times New Roman,serif" font-size="10.00">wasAttributedTo</text>
</g>
<!-- n7 -->
<g id="node11" class="node"><title>n7</title>
<g id="a_node11"><a xlink:href="http://datamechanics.io/log#a478e9af1-447c-408a-addc-cffd0c46950d" xlink:title="log:a478e9af1&#45;447c&#45;408a&#45;addc&#45;cffd0c46950d">
<polygon fill="#9fb1fc" stroke="#0000ff" points="583.5,-240 313.5,-240 313.5,-204 583.5,-204 583.5,-240"/>
<text text-anchor="middle" x="448.5" y="-218.3" font-family="Times New Roman,serif" font-size="14.00">log:a478e9af1&#45;447c&#45;408a&#45;addc&#45;cffd0c46950d</text>
</a>
</g>
</g>
<!-- n1&#45;&gt;n7 -->
<g id="edge16" class="edge"><title>n1&#45;&gt;n7</title>
<path fill="none" stroke="darkgreen" d="M344.5,-106.865C355.809,-112.222 367.731,-118.967 377.5,-127 400.788,-146.149 420.799,-174.416 433.585,-194.949"/>
<polygon fill="darkgreen" stroke="darkgreen" points="430.761,-197.041 438.937,-203.779 436.747,-193.413 430.761,-197.041"/>
<text text-anchor="middle" x="448.5" y="-159" font-family="Times New Roman,serif" font-size="10.00" fill="darkgreen">wasGeneratedBy</text>
</g>
<!-- b2 -->
<g id="node14" class="node"><title>b2</title>
<ellipse fill="gray" stroke="gray" cx="305.5" cy="-161.5" rx="1.8" ry="1.8"/>
</g>
<!-- n1&#45;&gt;b2 -->
<g id="edge10" class="edge"><title>n1&#45;&gt;b2</title>
<path fill="none" stroke="black" d="M305.5,-109.285C305.5,-127.041 305.5,-152.936 305.5,-159.132"/>
<text text-anchor="middle" x="339.5" y="-130" font-family="Times New Roman,serif" font-size="10.00">wasDerivedFrom</text>
</g>
<!-- ann1 -->
<g id="node2" class="node"><title>ann1</title>
<polygon fill="none" stroke="gray" points="362.5,-36 242.5,-36 242.5,-0 368.5,-0 368.5,-30 362.5,-36"/>
<polyline fill="none" stroke="gray" points="362.5,-36 362.5,-30 "/>
<polyline fill="none" stroke="gray" points="368.5,-30 362.5,-30 "/>
<g id="a_node2_0"><a xlink:href="http://www.w3.org/ns/prov#label" xlink:title="&lt;TABLE&gt;">
<text text-anchor="start" x="252.5" y="-22" font-family="Times New Roman,serif" font-size="10.00">prov:label</text>
</a>
</g>
<text text-anchor="start" x="294.5" y="-22" font-family="Times New Roman,serif" font-size="10.00">Hospital Scatter</text>
<g id="a_node2_1"><a xlink:href="http://www.w3.org/ns/prov#type" xlink:title="&lt;TABLE&gt;">
<text text-anchor="start" x="252.5" y="-9" font-family="Times New Roman,serif" font-size="10.00">prov:type</text>
</a>
</g>
<text text-anchor="start" x="294.5" y="-9" font-family="Times New Roman,serif" font-size="10.00">ont:DataSet</text>
</g>
<!-- ann1&#45;&gt;n1 -->
<g id="edge1" class="edge"><title>ann1&#45;&gt;n1</title>
<path fill="none" stroke="gray" stroke-dasharray="5,2" d="M305.5,-36.1871C305.5,-47.3501 305.5,-61.8398 305.5,-72.9712"/>
</g>
<!-- n2 -->
<g id="node3" class="node"><title>n2</title>
<g id="a_node3"><a xlink:href="http://datamechanics.io/data/mjclawar_rarshad/home_value_model" xlink:title="dat:home_value_model">
<ellipse fill="#fffc87" stroke="#808080" cx="754.5" cy="-91" rx="94.7833" ry="18"/>
<text text-anchor="middle" x="754.5" y="-87.3" font-family="Times New Roman,serif" font-size="14.00">dat:home_value_model</text>
</a>
</g>
</g>
<!-- n5 -->
<g id="node7" class="node"><title>n5</title>
<g id="a_node7"><a xlink:href="http://datamechanics.io/algorithm/mjclawar_rarshad/home_value_model" xlink:title="alg:home_value_model">
<polygon fill="#fed37f" stroke="black" points="752.372,-383.562 636.5,-396 520.628,-383.562 520.736,-363.438 752.264,-363.438 752.372,-383.562"/>
<text text-anchor="middle" x="636.5" y="-374.3" font-family="Times New Roman,serif" font-size="14.00">alg:home_value_model</text>
</a>
</g>
</g>
<!-- n2&#45;&gt;n5 -->
<g id="edge5" class="edge"><title>n2&#45;&gt;n5</title>
<path fill="none" stroke="#fed37f" d="M692.045,-104.663C663.74,-114.413 636.5,-131.364 636.5,-160.5 636.5,-160.5 636.5,-160.5 636.5,-306 636.5,-321.757 636.5,-339.48 636.5,-353.278"/>
<polygon fill="#fed37f" stroke="#fed37f" points="633,-353.389 636.5,-363.389 640,-353.389 633,-353.389"/>
<text text-anchor="middle" x="671.5" y="-219.5" font-family="Times New Roman,serif" font-size="10.00">wasAttributedTo</text>
</g>
<!-- n8 -->
<g id="node12" class="node"><title>n8</title>
<g id="a_node12"><a xlink:href="http://datamechanics.io/log#a818c9c92-7dfe-4579-90ef-356a5d0eb0f5" xlink:title="log:a818c9c92&#45;7dfe&#45;4579&#45;90ef&#45;356a5d0eb0f5">
<polygon fill="#9fb1fc" stroke="#0000ff" points="1032,-240 763,-240 763,-204 1032,-204 1032,-240"/>
<text text-anchor="middle" x="897.5" y="-218.3" font-family="Times New Roman,serif" font-size="14.00">log:a818c9c92&#45;7dfe&#45;4579&#45;90ef&#45;356a5d0eb0f5</text>
</a>
</g>
</g>
<!-- n2&#45;&gt;n8 -->
<g id="edge15" class="edge"><title>n2&#45;&gt;n8</title>
<path fill="none" stroke="darkgreen" d="M794.62,-107.4C805.593,-112.668 817.053,-119.232 826.5,-127 849.788,-146.149 869.799,-174.416 882.585,-194.949"/>
<polygon fill="darkgreen" stroke="darkgreen" points="879.761,-197.041 887.937,-203.779 885.747,-193.413 879.761,-197.041"/>
<text text-anchor="middle" x="896.5" y="-159" font-family="Times New Roman,serif" font-size="10.00" fill="darkgreen">wasGeneratedBy</text>
</g>
<!-- b1 -->
<g id="node13" class="node"><title>b1</title>
<ellipse fill="gray" stroke="gray" cx="754.5" cy="-161.5" rx="1.8" ry="1.8"/>
</g>
<!-- n2&#45;&gt;b1 -->
<g id="edge7" class="edge"><title>n2&#45;&gt;b1</title>
<path fill="none" stroke="black" d="M754.5,-109.285C754.5,-127.041 754.5,-152.936 754.5,-159.132"/>
<text text-anchor="middle" x="788.5" y="-130" font-family="Times New Roman,serif" font-size="10.00">wasDerivedFrom</text>
</g>
<!-- ann2 -->
<g id="node4" class="node"><title>ann2</title>
<polygon fill="none" stroke="gray" points="818,-36 685,-36 685,-0 824,-0 824,-30 818,-36"/>
<polyline fill="none" stroke="gray" points="818,-36 818,-30 "/>
<polyline fill="none" stroke="gray" points="824,-30 818,-30 "/>
<g id="a_node4_2"><a xlink:href="http://www.w3.org/ns/prov#label" xlink:title="&lt;TABLE&gt;">
<text text-anchor="start" x="695.5" y="-22" font-family="Times New Roman,serif" font-size="10.00">prov:label</text>
</a>
</g>
<text text-anchor="start" x="737.5" y="-22" font-family="Times New Roman,serif" font-size="10.00">Home Value Model</text>
<g id="a_node4_3"><a xlink:href="http://www.w3.org/ns/prov#type" xlink:title="&lt;TABLE&gt;">
<text text-anchor="start" x="695.5" y="-9" font-family="Times New Roman,serif" font-size="10.00">prov:type</text>
</a>
</g>
<text text-anchor="start" x="737.5" y="-9" font-family="Times New Roman,serif" font-size="10.00">ont:DataSet</text>
</g>
<!-- ann2&#45;&gt;n2 -->
<g id="edge2" class="edge"><title>ann2&#45;&gt;n2</title>
<path fill="none" stroke="gray" stroke-dasharray="5,2" d="M754.5,-36.1871C754.5,-47.3501 754.5,-61.8398 754.5,-72.9712"/>
</g>
<!-- n3 -->
<g id="node5" class="node"><title>n3</title>
<g id="a_node5"><a xlink:href="http://datamechanics.io/data/mjclawar_rarshad/hospital_distances" xlink:title="dat:hospital_distances">
<ellipse fill="#fffc87" stroke="#808080" cx="314.5" cy="-305" rx="90.9839" ry="18"/>
<text text-anchor="middle" x="314.5" y="-301.3" font-family="Times New Roman,serif" font-size="14.00">dat:hospital_distances</text>
</a>
</g>
</g>
<!-- n4 -->
<g id="node6" class="node"><title>n4</title>
<g id="a_node6"><a xlink:href="http://datamechanics.io/data/mjclawar_rarshad/property_assessment" xlink:title="dat:property_assessment">
<ellipse fill="#fffc87" stroke="#808080" cx="768.5" cy="-305" rx="100.983" ry="18"/>
<text text-anchor="middle" x="768.5" y="-301.3" font-family="Times New Roman,serif" font-size="14.00">dat:property_assessment</text>
</a>
</g>
</g>
<!-- ann3 -->
<g id="node8" class="node"><title>ann3</title>
<polygon fill="none" stroke="gray" points="602,-323 449,-323 449,-287 608,-287 608,-317 602,-323"/>
<polyline fill="none" stroke="gray" points="602,-323 602,-317 "/>
<polyline fill="none" stroke="gray" points="608,-317 602,-317 "/>
<g id="a_node8_4"><a xlink:href="http://www.w3.org/ns/prov#type" xlink:title="&lt;TABLE&gt;">
<text text-anchor="start" x="459.5" y="-309" font-family="Times New Roman,serif" font-size="10.00">prov:type</text>
</a>
</g>
<g id="a_node8_5"><a xlink:href="http://www.w3.org/ns/prov#SoftwareAgent" xlink:title="&lt;TABLE&gt;">
<text text-anchor="start" x="516.5" y="-309" font-family="Times New Roman,serif" font-size="10.00">prov:SoftwareAgent</text>
</a>
</g>
<g id="a_node8_6"><a xlink:href="http://datamechanics.io/ontology#Extension" xlink:title="&lt;TABLE&gt;">
<text text-anchor="start" x="459.5" y="-296" font-family="Times New Roman,serif" font-size="10.00">ont:Extension</text>
</a>
</g>
<text text-anchor="start" x="516.5" y="-296" font-family="Times New Roman,serif" font-size="10.00">py</text>
</g>
<!-- ann3&#45;&gt;n5 -->
<g id="edge3" class="edge"><title>ann3&#45;&gt;n5</title>
<path fill="none" stroke="gray" stroke-dasharray="5,2" d="M554.369,-323.006C573.09,-335.314 598.07,-351.736 615.546,-363.225"/>
</g>
<!-- ann4 -->
<g id="node10" class="node"><title>ann4</title>
<polygon fill="none" stroke="gray" points="153,-323 0,-323 0,-287 159,-287 159,-317 153,-323"/>
<polyline fill="none" stroke="gray" points="153,-323 153,-317 "/>
<polyline fill="none" stroke="gray" points="159,-317 153,-317 "/>
<g id="a_node10_7"><a xlink:href="http://www.w3.org/ns/prov#type" xlink:title="&lt;TABLE&gt;">
<text text-anchor="start" x="10.5" y="-309" font-family="Times New Roman,serif" font-size="10.00">prov:type</text>
</a>
</g>
<g id="a_node10_8"><a xlink:href="http://www.w3.org/ns/prov#SoftwareAgent" xlink:title="&lt;TABLE&gt;">
<text text-anchor="start" x="67.5" y="-309" font-family="Times New Roman,serif" font-size="10.00">prov:SoftwareAgent</text>
</a>
</g>
<g id="a_node10_9"><a xlink:href="http://datamechanics.io/ontology#Extension" xlink:title="&lt;TABLE&gt;">
<text text-anchor="start" x="10.5" y="-296" font-family="Times New Roman,serif" font-size="10.00">ont:Extension</text>
</a>
</g>
<text text-anchor="start" x="67.5" y="-296" font-family="Times New Roman,serif" font-size="10.00">py</text>
</g>
<!-- ann4&#45;&gt;n6 -->
<g id="edge4" class="edge"><title>ann4&#45;&gt;n6</title>
<path fill="none" stroke="gray" stroke-dasharray="5,2" d="M105.369,-323.006C124.09,-335.314 149.07,-351.736 166.546,-363.225"/>
</g>
<!-- n7&#45;&gt;n3 -->
<g id="edge14" class="edge"><title>n7&#45;&gt;n3</title>
<path fill="none" stroke="#8b0000" d="M420.082,-240.178C399.69,-252.504 372.066,-269.203 350.188,-282.428"/>
<polygon fill="#8b0000" stroke="#8b0000" points="348.253,-279.507 341.506,-287.675 351.875,-285.498 348.253,-279.507"/>
<text text-anchor="middle" x="400.5" y="-261" font-family="Times New Roman,serif" font-size="10.00" fill="red">used</text>
</g>
<!-- b4 -->
<g id="node16" class="node"><title>b4</title>
<ellipse fill="gray" stroke="gray" cx="429.5" cy="-305" rx="1.8" ry="1.8"/>
</g>
<!-- n7&#45;&gt;b4 -->
<g id="edge19" class="edge"><title>n7&#45;&gt;b4</title>
<path fill="none" stroke="#fed37f" d="M444.471,-240.178C439.416,-261.726 431.228,-296.635 429.737,-302.991"/>
<text text-anchor="middle" x="481.5" y="-261" font-family="Times New Roman,serif" font-size="10.00">wasAssociatedWith</text>
</g>
<!-- n8&#45;&gt;n4 -->
<g id="edge13" class="edge"><title>n8&#45;&gt;n4</title>
<path fill="none" stroke="#8b0000" d="M870.142,-240.178C850.728,-252.368 824.504,-268.835 803.555,-281.988"/>
<polygon fill="#8b0000" stroke="#8b0000" points="801.544,-279.119 794.936,-287.401 805.266,-285.047 801.544,-279.119"/>
<text text-anchor="middle" x="850.5" y="-261" font-family="Times New Roman,serif" font-size="10.00" fill="red">used</text>
</g>
<!-- b3 -->
<g id="node15" class="node"><title>b3</title>
<ellipse fill="gray" stroke="gray" cx="890.5" cy="-305" rx="1.8" ry="1.8"/>
</g>
<!-- n8&#45;&gt;b3 -->
<g id="edge17" class="edge"><title>n8&#45;&gt;b3</title>
<path fill="none" stroke="#fed37f" d="M896.015,-240.178C894.153,-261.726 891.137,-296.635 890.587,-302.991"/>
<text text-anchor="middle" x="934.5" y="-261" font-family="Times New Roman,serif" font-size="10.00">wasAssociatedWith</text>
</g>
<!-- b1&#45;&gt;n4 -->
<g id="edge8" class="edge"><title>b1&#45;&gt;n4</title>
<path fill="none" stroke="black" d="M754.412,-163.597C753.871,-170.531 751.145,-208.966 754.5,-240 755.829,-252.294 758.554,-265.689 761.25,-277.032"/>
<polygon fill="black" stroke="black" points="757.865,-277.923 763.676,-286.782 764.658,-276.232 757.865,-277.923"/>
</g>
<!-- b1&#45;&gt;n8 -->
<g id="edge9" class="edge"><title>b1&#45;&gt;n8</title>
<path fill="none" stroke="gray" d="M755.736,-163.006C763.739,-166.28 809.053,-184.817 846.328,-200.066"/>
<polygon fill="gray" stroke="gray" points="845.023,-203.314 855.604,-203.861 847.673,-196.835 845.023,-203.314"/>
</g>
<!-- b2&#45;&gt;n3 -->
<g id="edge11" class="edge"><title>b2&#45;&gt;n3</title>
<path fill="none" stroke="black" d="M305.466,-163.527C305.314,-168.191 304.694,-187.858 304.5,-204 304.307,-219.999 303.261,-224.048 304.5,-240 305.444,-252.15 307.38,-265.482 309.3,-276.818"/>
<polygon fill="black" stroke="black" points="305.908,-277.737 311.103,-286.971 312.801,-276.513 305.908,-277.737"/>
</g>
<!-- b2&#45;&gt;n7 -->
<g id="edge12" class="edge"><title>b2&#45;&gt;n7</title>
<path fill="none" stroke="gray" d="M306.736,-163.006C314.739,-166.28 360.053,-184.817 397.328,-200.066"/>
<polygon fill="gray" stroke="gray" points="396.023,-203.314 406.604,-203.861 398.673,-196.835 396.023,-203.314"/>
</g>
<!-- b3&#45;&gt;n5 -->
<g id="edge18" class="edge"><title>b3&#45;&gt;n5</title>
<path fill="none" stroke="#fed37f" d="M890.188,-306.798C889.072,-309.545 884.993,-318.673 878.5,-323 844.321,-345.778 802.003,-359.078 762.361,-366.801"/>
<polygon fill="#fed37f" stroke="#fed37f" points="761.546,-363.392 752.346,-368.646 762.815,-370.276 761.546,-363.392"/>
</g>
<!-- b4&#45;&gt;n6 -->
<g id="edge20" class="edge"><title>b4&#45;&gt;n6</title>
<path fill="none" stroke="#fed37f" d="M429.05,-306.795C427.457,-309.53 421.789,-318.624 414.5,-323 378.88,-344.385 335.368,-357.302 296.003,-365.104"/>
<polygon fill="#fed37f" stroke="#fed37f" points="295.267,-361.681 286.092,-366.979 296.569,-368.559 295.267,-361.681"/>
</g>
</g>
</svg>
